<svg width="523" height="330" viewBox="0 0 523 330" fill="none" xmlns="http://www.w3.org/2000/svg">
<path d="M502.275 83.1138C502.275 83.1138 496.445 79.7478 490.002 92.8686C483.559 105.989 481.209 113.52 481.209 113.52C481.209 113.52 479.472 116.279 477.45 114.583C475.428 112.886 472.569 107.983 469.249 108.986C465.833 110.035 464.835 113.725 465.7 119.064C466.565 124.403 467.994 136.165 468.127 137.227C468.259 138.29 467.674 139.867 466.098 138.89C464.522 137.914 455.317 128.918 451.049 133.307C446.781 137.696 451.746 152.196 452.29 153.767C452.834 155.338 452.493 156.057 451.698 156.486C450.903 156.915 448.113 153.602 445.422 151.133C442.73 148.665 439.069 146.263 436.837 148.988C434.606 151.714 434.271 162.736 446.007 180.213L452.004 187.975L462.165 187.09C483.782 183.949 492.331 176.464 493.029 173.078C493.726 169.693 489.43 168.689 485.679 168.373C481.927 168.056 477.45 168.234 477.269 167.389C477.087 166.544 477.436 165.865 479.047 165.185C480.658 164.505 495.462 158.512 496.153 152.579C496.843 146.645 483.601 146.038 481.808 145.537C480.016 145.035 480.881 143.596 481.808 142.996C482.736 142.395 493.042 135.67 497.847 132.772C502.652 129.875 504.869 126.753 503.475 123.625C502.08 120.608 496.313 121.796 493.628 121.466C490.944 121.136 492.003 118.087 492.003 118.087C492.003 118.087 496.445 111.487 502.638 98.241C508.83 84.9948 502.143 83.061 502.143 83.061" fill="#F5F5F5"/>
<path d="M496.501 94.8552C496.501 94.8552 496.466 94.9542 496.383 95.139C496.299 95.3238 496.174 95.6142 496.02 95.964L494.584 99.099C493.328 101.825 491.487 105.758 489.193 110.609C484.605 120.311 478.147 133.657 470.965 148.375C463.782 163.093 457.269 176.438 452.625 186.12L447.137 197.584L445.645 200.699C445.47 201.043 445.338 201.313 445.247 201.505C445.203 201.597 445.155 201.687 445.101 201.775C445.132 201.678 445.169 201.584 445.212 201.491C445.303 201.293 445.422 201.023 445.575 200.673C445.91 199.94 446.398 198.884 447.012 197.531C448.267 194.806 450.108 190.879 452.402 186.028C456.99 176.326 463.448 162.98 470.63 148.256C477.813 133.531 484.305 120.199 488.949 110.524C491.264 105.699 493.133 101.785 494.437 99.066L495.936 95.9508C496.104 95.601 496.236 95.337 496.334 95.139C496.432 94.941 496.501 94.8552 496.501 94.8552Z" fill="#E0E0E0"/>
<path d="M472.98 116.008C473.106 116.215 473.202 116.437 473.266 116.668C473.433 117.084 473.65 117.698 473.915 118.457C474.431 119.981 475.093 122.093 475.777 124.443L477.499 130.462C477.708 131.182 477.882 131.782 478.029 132.284C478.113 132.496 478.167 132.718 478.189 132.944C478.064 132.737 477.968 132.515 477.903 132.284C477.736 131.868 477.52 131.254 477.262 130.489C476.76 128.964 476.125 126.839 475.442 124.489L473.678 118.483L473.141 116.668C473.061 116.455 473.007 116.233 472.98 116.008Z" fill="#E0E0E0"/>
<path d="M479.131 133.082C479.131 132.997 483.649 131.512 489.291 129.782C494.932 128.053 499.535 126.687 499.563 126.773C499.59 126.859 495.044 128.344 489.402 130.073C483.761 131.802 479.159 133.168 479.131 133.082Z" fill="#E0E0E0"/>
<path d="M467.018 155.219C467.266 155.175 467.519 155.155 467.771 155.159L469.807 155.093C471.523 155.034 473.901 154.948 476.516 154.757C479.131 154.565 481.495 154.341 483.21 154.156L485.232 153.938C485.481 153.895 485.734 153.881 485.986 153.899C485.76 153.976 485.526 154.032 485.288 154.064C484.814 154.15 484.124 154.262 483.273 154.381C481.571 154.625 479.2 154.902 476.579 155.087C473.957 155.272 471.572 155.324 469.842 155.318C468.985 155.318 468.287 155.318 467.806 155.285C467.541 155.297 467.276 155.275 467.018 155.219Z" fill="#E0E0E0"/>
<path d="M457.869 140.936C458.03 141.093 458.171 141.268 458.287 141.458C458.538 141.801 458.901 142.309 459.333 142.943C460.205 144.203 461.384 145.959 462.667 147.906C463.95 149.853 465.1 151.628 465.916 152.922C466.328 153.582 466.648 154.097 466.865 154.466C466.997 154.648 467.102 154.846 467.178 155.054C467.011 154.9 466.867 154.725 466.753 154.532C466.502 154.183 466.146 153.681 465.707 153.047C464.842 151.787 463.664 150.031 462.374 148.078C461.084 146.124 459.94 144.355 459.124 143.062C458.72 142.402 458.427 141.887 458.176 141.524C458.049 141.34 457.946 141.143 457.869 140.936Z" fill="#E0E0E0"/>
<path d="M444.55 159.192C444.753 159.393 444.933 159.615 445.087 159.852L446.433 161.753C447.549 163.363 449.083 165.601 450.756 168.082C452.43 170.564 453.929 172.828 454.996 174.471L456.251 176.451C456.414 176.685 456.554 176.933 456.67 177.19C456.467 176.988 456.287 176.767 456.133 176.53L454.794 174.629C453.671 173.012 452.137 170.775 450.463 168.293C448.79 165.812 447.298 163.548 446.224 161.905C445.722 161.126 445.303 160.466 444.975 159.925C444.807 159.695 444.664 159.45 444.55 159.192Z" fill="#E0E0E0"/>
<path d="M456.509 176.675C456.818 176.609 457.134 176.573 457.451 176.57L460.031 176.398C462.206 176.253 465.219 176.042 468.531 175.738C471.844 175.435 474.807 175.078 477.004 174.794L479.563 174.471C479.876 174.418 480.193 174.391 480.511 174.392C480.21 174.489 479.9 174.558 479.584 174.596C478.984 174.709 478.113 174.854 477.039 175.019C474.877 175.355 471.885 175.751 468.566 176.068C465.247 176.385 462.227 176.563 460.045 176.649C458.95 176.689 458.071 176.715 457.458 176.715C457.141 176.727 456.824 176.714 456.509 176.675Z" fill="#E0E0E0"/>
<path d="M87.0202 148.124C103.289 137.848 107.243 118.424 106.915 100.874C106.852 97.944 107.25 94.8684 105.799 92.2944C104.349 89.7204 100.918 87.8988 98.0799 89.0934C95.7438 90.0834 94.6839 92.598 93.352 94.6704C91.5557 97.4393 88.9724 99.6739 85.8975 101.119C83.8892 102.056 81.4136 102.61 79.4611 101.567C76.7833 100.142 76.5183 96.6504 76.5881 93.7398L76.9646 77.4774C77.0274 74.5668 77.0902 71.5968 76.1627 68.8182C75.2352 66.0396 73.1432 63.4524 70.1935 62.634C67.2438 61.8156 63.5549 63.36 62.8785 66.198C62.5996 67.3794 62.8367 68.6136 62.7321 69.8214C62.6275 71.0292 62.0347 72.3558 60.7656 72.6726C59.4964 72.9894 58.29 72.1512 57.3696 71.2932C54.2037 68.3034 52.0838 64.4952 50.1103 60.7332C48.1369 56.9712 46.2122 53.0574 43.3532 49.8168C40.4941 46.5762 36.4914 43.9758 32.0354 43.6722C27.5795 43.3686 22.7888 45.8832 21.5754 49.9554C20.3621 54.0276 22.8725 58.2384 25.606 61.5978C29.6764 66.5743 34.4841 70.9689 39.8804 74.646C40.8567 75.306 41.9027 76.0254 42.2653 77.1078C42.9069 79.0878 40.9125 80.9556 38.8484 81.5694C36.5123 82.2294 33.9671 81.9984 31.5682 82.2294C29.1694 82.4604 26.4847 83.424 25.5293 85.5294C24.2114 88.4862 26.8194 91.641 29.4065 93.72C34.5894 97.8843 40.4852 101.181 46.8398 103.468C49.1201 104.287 51.5189 105.006 53.339 106.537C55.159 108.068 56.2399 110.695 55.0893 112.728C53.9387 114.761 51.0587 115.368 48.6668 114.932C46.275 114.497 44.1481 113.236 41.8748 112.398C37.6141 110.827 32.1122 111.025 29.288 114.444C27.447 116.688 27.2378 119.849 28.1025 122.569C28.9672 125.288 30.7802 127.644 32.7049 129.829C39.4411 137.445 48.1299 143.623 58.0041 146.989C67.8784 150.355 77.0623 151.345 86.9853 148.111" fill="#EBEBEB"/>
<path d="M85.772 148.46C83.157 139.583 76.0093 118.694 71.7207 108.86L68.5339 101.6C67.4809 99.2178 66.4419 96.8616 65.2634 94.611C62.9989 90.3029 60.4847 86.1165 57.7322 82.071C55.1242 78.177 52.5022 74.5734 50.0616 71.214C47.6209 67.8546 45.1802 64.7856 42.893 62.0598C39.2861 57.7406 35.322 53.6996 31.0383 49.9752C29.5251 48.6552 28.3187 47.6652 27.4889 47.0052L26.4987 46.2C26.2825 46.035 26.1639 45.9558 26.1639 45.9558C26.1639 45.9558 26.2616 46.0548 26.4638 46.233L27.3843 47.0118C28.1862 47.6718 29.3786 48.7014 30.8709 50.0412C35.0903 53.8095 39.0063 57.8711 42.5861 62.1918C44.8594 64.9242 47.2164 68.013 49.692 71.3658C52.1675 74.7186 54.7616 78.3354 57.3626 82.2228C60.0978 86.2698 62.5957 90.4561 64.845 94.7628C66.0096 97.0068 67.0486 99.3828 68.1016 101.739C69.1545 104.095 70.1936 106.55 71.2884 108.999C75.5491 118.82 82.7177 139.689 85.3536 148.54" fill="#E0E0E0"/>
<path d="M65.1169 94.5648C65.2613 94.1615 65.364 93.746 65.4238 93.324C65.5911 92.5188 65.8003 91.344 66.0374 89.9052C66.5186 87.0144 67.0416 83.0016 67.6064 78.573C68.1713 74.1444 68.764 70.1514 69.3079 67.2738C69.5729 65.835 69.803 64.6734 70.0053 63.8748C70.1143 63.4633 70.1866 63.0438 70.2214 62.6208C70.0507 63.0129 69.92 63.4196 69.8309 63.8352C69.6008 64.6272 69.3219 65.8152 69.015 67.221C68.3386 70.0854 67.711 74.0916 67.1462 78.54C66.5813 82.9884 66.0932 86.9022 65.7167 89.8854C65.5284 91.2714 65.368 92.4264 65.2425 93.3174C65.1635 93.7291 65.1215 94.1464 65.1169 94.5648Z" fill="#E0E0E0"/>
<path d="M25.1876 87.0078C25.3208 87.048 25.4593 87.0702 25.599 87.0738L26.7845 87.186C27.8166 87.285 29.3019 87.417 31.1289 87.6348C34.7899 88.044 39.8316 88.7898 45.3545 89.8392C50.8774 90.8886 55.8145 92.07 59.3709 93.0138C61.1491 93.4758 62.5786 93.885 63.5549 94.1622L64.6985 94.479C64.8281 94.5265 64.9644 94.5554 65.103 94.5648C64.9869 94.4923 64.8599 94.4367 64.7264 94.3998C64.4196 94.2876 64.0291 94.1556 63.6107 94.0038C62.6414 93.6738 61.2188 93.2118 59.4267 92.6838C55.8912 91.6608 50.9401 90.4398 45.4103 89.3838C39.8804 88.3278 34.8666 87.6612 31.1638 87.3246C29.3298 87.1464 27.8305 87.0606 26.7985 87.021H25.606C25.4677 87.0001 25.3271 86.9957 25.1876 87.0078Z" fill="#E0E0E0"/>
<path d="M81.8809 136.376C81.9872 136.233 82.0783 136.08 82.1528 135.92L82.8502 134.6C83.4499 133.426 84.2448 131.71 85.2769 129.578C87.2712 125.321 89.8305 119.354 92.571 112.741C95.3115 106.128 97.8149 100.122 99.7186 95.832L102.006 90.7632C102.257 90.1956 102.466 89.7402 102.627 89.3838C102.706 89.2248 102.769 89.059 102.815 88.8888C102.702 89.0278 102.611 89.1811 102.543 89.3442L101.846 90.6642C101.246 91.839 100.416 93.555 99.4258 95.6802C97.4314 99.9438 94.8652 105.91 92.1317 112.523C89.3981 119.137 86.8807 125.116 84.9631 129.406L82.6758 134.475L82.0622 135.854C81.9794 136.021 81.9185 136.196 81.8809 136.376Z" fill="#E0E0E0"/>
<path d="M28.9324 119.605C29.0992 119.688 29.2744 119.754 29.4554 119.803L30.9965 120.298L36.6728 122.1C41.4635 123.618 48.0532 125.789 55.3264 128.205C62.5996 130.621 69.2173 132.746 74.0359 134.191C76.4417 134.911 78.4012 135.478 79.754 135.848L81.323 136.264C81.504 136.322 81.691 136.362 81.8809 136.382C81.7116 136.298 81.5341 136.23 81.3509 136.178L79.8098 135.683L74.1335 133.894C69.3428 132.376 62.753 130.205 55.4798 127.789C48.2067 125.374 41.5959 123.242 36.7774 121.803C34.3646 121.084 32.4121 120.516 31.0523 120.146L29.4902 119.724C29.3088 119.667 29.122 119.627 28.9324 119.605Z" fill="#E0E0E0"/>
<path d="M354.775 46.4442H442.688L425.492 58.014V67.6764C425.453 72.4504 423.413 77.0145 419.819 80.3649C416.226 83.7153 411.373 85.5777 406.329 85.5426H351.163C346.119 85.5777 341.267 83.7153 337.673 80.3649C334.08 77.0145 332.039 72.4504 332 67.6764C332.022 64.8668 332.629 62.0887 333.785 59.501C334.942 56.9132 336.626 54.5665 338.741 52.5948C340.856 50.6231 343.36 49.0651 346.111 48.0098C348.863 46.9544 351.807 46.4224 354.775 46.4442Z" fill="#F5F5F5"/>
<path d="M410.66 59.3604C410.66 59.4528 396.016 59.532 377.885 59.532C359.754 59.532 345.11 59.4528 345.11 59.3604C345.11 59.268 359.754 59.1888 377.885 59.1888C396.016 59.1888 410.66 59.2614 410.66 59.3604Z" fill="#E0E0E0"/>
<path d="M410.66 65.7888C410.66 65.8812 396.016 65.9604 377.885 65.9604C359.754 65.9604 345.11 65.8812 345.11 65.7888C345.11 65.6964 359.754 65.6172 377.885 65.6172C396.016 65.6172 410.66 65.6898 410.66 65.7888Z" fill="#E0E0E0"/>
<path d="M221.396 244.477H117.368L134.313 256.08V278.85C134.313 279.475 134.443 280.093 134.696 280.67C134.949 281.247 135.319 281.771 135.786 282.212C136.253 282.654 136.808 283.004 137.418 283.242C138.027 283.481 138.681 283.603 139.341 283.602H221.396C222.056 283.603 222.71 283.481 223.32 283.242C223.93 283.004 224.484 282.654 224.951 282.212C225.418 281.771 225.788 281.247 226.041 280.67C226.294 280.093 226.424 279.475 226.424 278.85V249.229C226.422 247.968 225.892 246.76 224.949 245.869C224.006 244.978 222.728 244.477 221.396 244.477Z" fill="#F5F5F5"/>
<path d="M217.059 260.568C217.059 260.667 201.369 260.74 182.018 260.74C162.667 260.74 146.977 260.667 146.977 260.568C146.977 260.469 162.66 260.396 182.018 260.396C201.376 260.396 217.059 260.476 217.059 260.568Z" fill="#E0E0E0"/>
<path d="M217.059 269.313C217.059 269.405 201.369 269.485 182.018 269.485C162.667 269.485 146.977 269.405 146.977 269.313C146.977 269.221 162.66 269.141 182.018 269.141C201.376 269.141 217.059 269.221 217.059 269.313Z" fill="#E0E0E0"/>
<path d="M433.797 132.264H312.05C297.111 132.264 285 143.726 285 157.865V251.651C285 265.791 297.111 277.253 312.05 277.253H433.797C448.736 277.253 460.847 265.791 460.847 251.651V157.865C460.847 143.726 448.736 132.264 433.797 132.264Z" fill="#F8B738"/>
<g opacity="0.4">
<path opacity="0.4" d="M433.797 132.264H312.05C297.111 132.264 285 143.726 285 157.865V251.651C285 265.791 297.111 277.253 312.05 277.253H433.797C448.736 277.253 460.847 265.791 460.847 251.651V157.865C460.847 143.726 448.736 132.264 433.797 132.264Z" fill="black"/>
</g>
<path d="M460.798 182.807H487.136L460.205 208.303L460.798 182.807Z" fill="#F8B738"/>
<g opacity="0.4">
<path opacity="0.4" d="M460.798 182.807H487.136L460.205 208.303L460.798 182.807Z" fill="black"/>
</g>
<path d="M280.788 198.482L269.749 186.602C266.765 183.777 265.74 182.417 266.34 181.922C267.134 181.262 266.793 181.48 272.992 185.882C272.992 185.882 264.206 179.527 267.253 179.487C267.79 179.487 269.282 180.305 270.879 181.295C268.703 179.546 268.09 178.365 268.515 177.804C269.213 176.827 274.596 180.358 277.071 182.054C275.049 180.629 271.193 177.863 270.517 176.992C269.582 175.804 271.472 175.903 273.006 176.398C274.728 176.953 284.247 181.553 287.064 182.741C287.29 182.868 287.543 182.948 287.804 182.974C288.066 183.001 288.33 182.973 288.579 182.894C288.829 182.814 289.057 182.684 289.248 182.513C289.439 182.342 289.588 182.134 289.686 181.903C290.725 177.771 293.87 175.085 295.07 174.735C296.269 174.385 297.197 175.837 296.339 176.893C295.532 178.122 294.908 179.45 294.484 180.84C294.095 181.93 293.904 183.075 293.919 184.226C293.919 185.546 294.017 186.688 294.107 187.645L304.198 200.746L287.322 209.986L280.788 198.482Z" fill="#B78876"/>
<path d="M276.841 187.73C276.73 187.876 274.749 186.602 272.462 184.879C270.175 183.157 268.39 181.639 268.522 181.5C268.655 181.361 270.614 182.642 272.901 184.351C275.189 186.061 276.939 187.579 276.841 187.73Z" fill="#AA6550"/>
<path d="M278.975 185.645C278.864 185.797 276.695 184.543 274.129 182.853C271.563 181.163 269.568 179.665 269.68 179.52C269.791 179.375 271.96 180.616 274.526 182.305C277.092 183.995 279.087 185.493 278.975 185.645Z" fill="#AA6550"/>
<path d="M280.537 183.427C280.426 183.579 278.348 182.431 275.9 180.86C273.452 179.289 271.556 177.896 271.66 177.738C271.765 177.58 273.843 178.735 276.297 180.305C278.752 181.876 280.642 183.275 280.537 183.427Z" fill="#AA6550"/>
<path d="M295.049 189.42L335.271 237.692L326.059 257.987C326.059 257.987 315.027 255.677 311.68 251.282C308.333 246.886 280.788 198.482 280.788 198.482L295.049 189.42Z" fill="#B78876"/>
<path d="M397.152 121.889C400.046 124.265 400.039 128.449 399.705 132.059C399.37 135.67 399.112 139.781 401.755 142.408C403.937 144.573 407.891 145.517 408.393 148.467C408.512 149.16 408.401 149.871 408.076 150.502C407.751 151.133 407.227 151.654 406.576 151.992C405.926 152.329 405.181 152.468 404.443 152.389C403.706 152.31 403.013 152.016 402.459 151.549C403.31 153.879 402.724 156.79 400.59 158.202C398.456 159.614 394.879 158.743 394.217 156.361C394.325 156.758 394.346 157.173 394.277 157.579C394.209 157.984 394.053 158.372 393.819 158.718C393.585 159.064 393.278 159.361 392.918 159.59C392.557 159.819 392.151 159.975 391.724 160.049C391.297 160.122 390.859 160.112 390.436 160.018C390.013 159.924 389.616 159.749 389.268 159.503C388.92 159.258 388.63 158.947 388.414 158.59C388.199 158.233 388.064 157.838 388.017 157.43" fill="#263238"/>
<path d="M355.71 146.256C355.32 147.14 354.576 147.841 353.64 148.206C352.705 148.57 351.654 148.568 350.72 148.2C349.786 147.831 349.045 147.127 348.66 146.241C348.275 145.355 348.277 144.361 348.667 143.477C349.329 142.105 350.898 141.115 351.052 139.61C351.233 137.795 349.273 136.495 347.565 135.703C345.856 134.911 343.792 133.881 343.604 132.059C343.416 130.238 345.082 128.938 346.47 127.763C347.858 126.588 349.259 124.766 348.374 123.202C347.934 122.397 347.021 121.942 346.428 121.222C345.124 119.651 345.808 117.15 347.474 115.942C349.141 114.734 351.442 114.543 353.52 114.893C355.598 115.243 357.551 116.061 359.573 116.635C362.925 117.558 366.443 117.812 369.905 117.383C373.366 116.954 376.696 115.85 379.684 114.14" fill="#263238"/>
<path d="M368.06 188.819C371.662 189.507 375.406 188.827 378.484 186.926C381.561 185.024 383.726 182.054 384.51 178.655L394.405 135.716C395.022 133.236 395.108 130.665 394.658 128.153C394.207 125.642 393.229 123.241 391.781 121.094C390.333 118.946 388.445 117.095 386.228 115.651C384.012 114.206 381.511 113.196 378.875 112.682L377.843 112.537C372.802 111.835 367.667 112.957 363.46 115.678C359.254 118.4 356.285 122.521 355.145 127.222C352.941 136.283 350.633 146.322 349.936 151.252C348.492 161.462 359.001 164.538 359.001 164.538L357.111 173.118C356.737 174.827 356.723 176.59 357.07 178.305C357.417 180.02 358.119 181.652 359.135 183.11C360.151 184.567 361.461 185.82 362.99 186.796C364.52 187.773 366.238 188.453 368.046 188.8L368.06 188.819Z" fill="#B78876"/>
<path d="M357.084 133.98C357.022 134.359 357.119 134.746 357.353 135.058C357.587 135.371 357.941 135.586 358.339 135.656C358.532 135.698 358.731 135.703 358.926 135.67C359.121 135.638 359.307 135.569 359.473 135.467C359.64 135.366 359.783 135.234 359.895 135.08C360.006 134.925 360.084 134.751 360.124 134.567C360.189 134.189 360.095 133.801 359.861 133.488C359.628 133.175 359.274 132.96 358.876 132.891C358.682 132.849 358.482 132.845 358.287 132.877C358.092 132.909 357.905 132.978 357.738 133.08C357.571 133.181 357.427 133.313 357.315 133.467C357.203 133.622 357.124 133.796 357.084 133.98Z" fill="#263238"/>
<path d="M356.686 132.528C356.846 132.746 358.136 132.086 359.796 132.323C361.456 132.561 362.537 133.505 362.746 133.34C362.851 133.267 362.704 132.898 362.237 132.462C361.593 131.893 360.78 131.527 359.908 131.413C359.048 131.29 358.169 131.428 357.397 131.809C356.832 132.112 356.609 132.429 356.686 132.528Z" fill="#263238"/>
<path d="M373.255 136.488C373.192 136.867 373.288 137.255 373.522 137.568C373.757 137.881 374.111 138.095 374.51 138.164C374.703 138.206 374.904 138.21 375.099 138.177C375.294 138.145 375.48 138.075 375.647 137.973C375.813 137.871 375.956 137.738 376.068 137.583C376.179 137.428 376.256 137.253 376.295 137.069C376.358 136.69 376.262 136.304 376.027 135.992C375.793 135.68 375.438 135.467 375.04 135.399C374.847 135.356 374.647 135.351 374.452 135.383C374.257 135.415 374.07 135.484 373.904 135.586C373.737 135.687 373.594 135.819 373.482 135.974C373.371 136.129 373.294 136.304 373.255 136.488Z" fill="#263238"/>
<path d="M372.906 135.076C373.066 135.287 374.357 134.633 376.009 134.871C377.662 135.109 378.757 136.052 378.966 135.887C379.064 135.815 378.924 135.445 378.45 135.01C377.806 134.441 376.993 134.074 376.121 133.96C375.261 133.837 374.382 133.976 373.61 134.356C373.073 134.64 372.822 134.977 372.906 135.076Z" fill="#263238"/>
<path d="M365.103 145.86C365.103 145.768 364.12 145.457 362.488 145.028C362.069 144.929 361.686 144.791 361.658 144.507C361.687 144.091 361.847 143.693 362.118 143.365C362.671 142.454 363.246 141.497 363.841 140.494C366.247 136.396 368.025 133.01 367.878 132.917C367.732 132.825 365.612 136.072 363.206 140.177L361.532 143.068C361.194 143.517 361.032 144.063 361.072 144.613C361.115 144.758 361.192 144.893 361.297 145.008C361.402 145.122 361.532 145.212 361.679 145.273C361.902 145.363 362.136 145.427 362.376 145.464C363.264 145.703 364.18 145.836 365.103 145.86Z" fill="#263238"/>
<path d="M373.422 128.878C373.52 129.327 375.207 129.353 377.111 129.842C379.015 130.33 380.507 131.05 380.828 130.706C380.967 130.541 380.758 130.099 380.193 129.604C379.427 128.981 378.52 128.532 377.543 128.29C376.565 128.049 375.542 128.022 374.552 128.212C373.771 128.383 373.387 128.7 373.422 128.878Z" fill="#263238"/>
<path d="M357.997 128.08C358.234 128.476 359.392 128.264 360.786 128.436C362.181 128.608 363.283 129.03 363.576 128.693C363.722 128.528 363.576 128.146 363.143 127.736C362.524 127.238 361.763 126.926 360.956 126.839C360.148 126.752 359.332 126.895 358.611 127.248C358.109 127.545 357.892 127.888 357.997 128.08Z" fill="#263238"/>
<path d="M384.447 122.918L384.496 122.971C386.015 124.489 386.855 126.504 386.839 128.594V128.799C386.839 131.769 386.274 134.739 386.281 137.676C386.288 140.613 386.888 143.741 388.847 146.051C389.649 147.008 391.211 147.8 392.125 146.942C392.446 146.577 392.652 146.133 392.717 145.662C394.377 138.725 397.362 132.785 398.484 125.446C398.64 124.464 398.546 123.46 398.21 122.519C397.874 121.578 397.306 120.726 396.553 120.034C395.102 118.714 393.296 117.289 391.364 117.85C389.433 118.411 386.609 121.282 384.998 122.47" fill="#263238"/>
<path d="M390.06 139.821C390.256 139.768 397.78 138.772 396.462 145.708C395.144 152.645 388.094 149.965 388.094 149.761C388.094 149.556 390.06 139.821 390.06 139.821Z" fill="#B78876"/>
<path d="M390.827 147.517C390.827 147.517 390.939 147.622 391.134 147.748C391.415 147.924 391.758 147.99 392.09 147.932C392.912 147.794 393.784 146.744 394.056 145.497C394.196 144.908 394.196 144.297 394.056 143.708C394.027 143.48 393.94 143.262 393.803 143.072C393.666 142.883 393.482 142.727 393.268 142.619C393.128 142.557 392.97 142.543 392.821 142.581C392.671 142.618 392.541 142.704 392.452 142.824C392.32 142.996 392.341 143.147 392.299 143.147C392.257 143.147 392.166 143.009 392.299 142.732C392.371 142.567 392.502 142.432 392.668 142.349C392.897 142.238 393.162 142.217 393.408 142.289C393.7 142.399 393.957 142.579 394.155 142.81C394.352 143.041 394.484 143.316 394.537 143.609C394.731 144.254 394.757 144.933 394.614 145.589C394.3 146.982 393.296 148.157 392.187 148.269C391.98 148.29 391.77 148.266 391.573 148.2C391.376 148.134 391.198 148.026 391.051 147.886C390.807 147.682 390.8 147.523 390.827 147.517Z" fill="#AA6550"/>
<path d="M391.448 118.965C393.694 116.424 389.356 111.738 385.869 110.147C382.383 108.557 377.362 109.573 373.569 110.207C371.177 110.609 368.75 111.296 366.365 110.867C364.782 110.492 363.268 109.893 361.874 109.091C360.476 108.304 358.925 107.79 357.314 107.58C356.503 107.486 355.68 107.602 354.935 107.917C354.189 108.233 353.548 108.734 353.081 109.369C352.251 110.689 352.83 112.754 354.392 113.183C353.921 112.845 353.371 112.62 352.788 112.527C352.205 112.435 351.607 112.477 351.045 112.651C350.484 112.825 349.975 113.126 349.563 113.527C349.151 113.928 348.848 114.418 348.679 114.954C348.511 115.49 348.483 116.057 348.597 116.606C348.711 117.155 348.965 117.669 349.335 118.105C349.705 118.541 350.182 118.886 350.724 119.109C351.266 119.332 351.857 119.428 352.446 119.387C351.519 118.49 349.72 119.513 349.657 120.767C349.594 122.021 350.64 123.083 351.749 123.75C354.615 125.453 358.255 125.539 361.588 124.971C364.922 124.403 368.115 123.229 371.435 122.582C374.754 121.935 380.326 120.707 383.324 122.206C385.528 123.301 386.741 126.166 388.143 125.776C388.806 125.545 389.404 125.17 389.888 124.682C390.372 124.194 390.73 123.606 390.932 122.965C391.31 121.677 391.468 120.34 391.399 119.005" fill="#263238"/>
<path d="M405.792 151.14C405.929 151.11 406.06 151.057 406.176 150.982C406.521 150.772 406.796 150.475 406.971 150.124C407.241 149.562 407.324 148.936 407.208 148.328C407.027 147.53 406.565 146.813 405.897 146.296C405.104 145.678 404.212 145.186 403.254 144.837C402.177 144.465 401.142 143.992 400.165 143.425C399.141 142.744 398.36 141.784 397.926 140.672C397.45 139.476 397.229 138.202 397.278 136.924C397.348 134.284 398.122 131.809 398.31 129.479C398.498 127.149 398.184 124.964 397.138 123.453C396.352 122.237 395.105 121.352 393.652 120.978C393.262 120.885 392.86 120.847 392.459 120.866C392.32 120.868 392.182 120.888 392.048 120.925C392.577 120.922 393.105 120.984 393.617 121.11C394.998 121.523 396.17 122.405 396.908 123.585C397.878 125.05 398.212 127.175 397.968 129.452C397.724 131.729 396.978 134.204 396.894 136.917C396.85 138.242 397.087 139.561 397.592 140.798C398.058 141.972 398.893 142.983 399.984 143.695C400.984 144.264 402.043 144.737 403.142 145.108C404.075 145.435 404.948 145.898 405.73 146.48C406.367 146.957 406.818 147.622 407.013 148.368C407.14 148.936 407.082 149.528 406.845 150.064C406.63 150.523 406.259 150.902 405.792 151.14Z" fill="#455A64"/>
<path d="M354.155 113.018C354.057 112.949 353.949 112.893 353.834 112.853C353.704 112.793 353.568 112.742 353.429 112.702C353.237 112.639 353.038 112.593 352.837 112.563C352.175 112.464 351.499 112.509 350.859 112.694C350.218 112.88 349.631 113.2 349.141 113.632C348.644 114.205 348.273 114.864 348.048 115.574C347.823 116.283 347.749 117.027 347.83 117.764C347.924 118.679 348.21 119.566 348.672 120.375C349.135 121.183 349.763 121.895 350.522 122.47C352.264 123.798 354.386 124.605 356.616 124.786C359.038 124.983 361.476 124.843 363.855 124.37C367.626 123.671 371.237 122.349 374.524 120.463C375.933 119.638 377.406 118.917 378.931 118.305C380.261 117.794 381.68 117.519 383.115 117.493C385.204 117.45 387.27 117.904 389.126 118.813C389.797 119.168 390.446 119.558 391.072 119.981C390.513 119.462 389.882 119.018 389.196 118.661C387.335 117.68 385.238 117.173 383.108 117.19C381.637 117.2 380.181 117.466 378.812 117.975C377.271 118.586 375.782 119.308 374.356 120.133C371.093 121.979 367.516 123.277 363.785 123.968C361.442 124.438 359.038 124.582 356.651 124.397C354.49 124.227 352.43 123.455 350.731 122.179C350 121.633 349.392 120.953 348.942 120.182C348.491 119.41 348.208 118.561 348.109 117.685C348.024 116.982 348.086 116.271 348.292 115.591C348.497 114.912 348.843 114.278 349.308 113.725C349.773 113.305 350.331 112.988 350.941 112.797C351.552 112.606 352.199 112.547 352.837 112.622C353.288 112.716 353.729 112.848 354.155 113.018Z" fill="#455A64"/>
<path d="M358.234 107.243C358.209 107.774 358.297 108.303 358.492 108.801C359.036 110.176 360.053 111.339 361.379 112.101C362.27 112.65 363.261 113.04 364.301 113.249C365.494 113.477 366.716 113.537 367.927 113.428C370.486 113.249 373.164 112.418 375.974 111.731C378.785 111.045 381.595 110.682 384.022 111.296C386.175 111.836 388.091 113.013 389.489 114.655C390.45 115.746 391.162 117.013 391.581 118.378C391.86 119.348 391.894 119.915 391.943 119.909C391.953 119.773 391.953 119.636 391.943 119.5C391.905 119.111 391.837 118.725 391.741 118.345C391.369 116.937 390.676 115.624 389.712 114.497C388.3 112.787 386.344 111.553 384.133 110.979C381.623 110.319 378.736 110.695 375.912 111.388C373.087 112.081 370.431 112.913 367.927 113.104C366.748 113.22 365.557 113.173 364.392 112.966C363.384 112.772 362.42 112.409 361.547 111.896C360.254 111.175 359.241 110.078 358.66 108.768C358.473 108.272 358.331 107.762 358.234 107.243Z" fill="#455A64"/>
<path d="M361.797 151.041C361.889 151.722 362.079 152.389 362.362 153.021C362.51 153.334 362.727 153.613 362.997 153.84C363.268 154.068 363.586 154.238 363.931 154.341C364.305 154.414 364.693 154.397 365.058 154.293C365.423 154.188 365.755 153.998 366.023 153.74C366.558 153.207 366.902 152.528 367.007 151.8C367.118 151.14 367.007 150.315 366.309 150.104C366.028 150.038 365.733 150.038 365.451 150.104L361.588 150.764" fill="#AA6550"/>
<path d="M362.474 153.813C363.088 154.037 363.74 154.153 364.399 154.156C365.08 154.118 365.722 153.84 366.198 153.377C366.479 153.094 366.693 152.758 366.826 152.39C366.96 152.023 367.009 151.633 366.972 151.246C366.951 151.047 366.904 150.852 366.832 150.665C366.742 150.487 366.769 150.5 366.609 150.48C366.449 150.46 366.198 150.48 365.988 150.513L365.34 150.559C364.503 150.619 363.75 150.665 363.115 150.698C362.42 150.789 361.714 150.776 361.023 150.658C361.676 150.433 362.359 150.299 363.053 150.262C363.68 150.176 364.447 150.091 365.263 149.998L365.905 149.932C366.136 149.9 366.369 149.88 366.602 149.873C366.787 149.878 366.965 149.938 367.111 150.044C367.241 150.153 367.34 150.292 367.397 150.447C367.492 150.685 367.553 150.933 367.578 151.186C367.624 151.661 367.559 152.14 367.386 152.589C367.214 153.037 366.939 153.444 366.581 153.78C365.986 154.316 365.192 154.607 364.371 154.592C363.834 154.594 363.308 154.454 362.85 154.189C362.613 154.004 362.453 153.839 362.474 153.813Z" fill="#263238"/>
<path d="M359.015 164.538C359.015 164.538 366.044 167.059 372.885 165.198C372.885 165.198 367.725 169.297 358.311 167.726L359.015 164.538Z" fill="#AA6550"/>
<path d="M369.74 259.162C369.401 258.952 369.08 258.718 368.778 258.463C368.478 258.232 368.08 257.948 367.655 257.644C367.23 257.341 366.714 256.984 366.121 256.621C365.528 256.258 364.915 255.862 364.196 255.486C363.478 255.11 362.718 254.714 361.902 254.318C358.325 252.652 354.478 251.563 350.522 251.097C349.608 251.005 348.743 250.899 347.928 250.879C347.112 250.859 346.352 250.826 345.661 250.833C344.971 250.84 344.336 250.873 343.785 250.892C343.234 250.912 342.76 250.952 342.391 250.991C341.992 251.049 341.588 251.076 341.184 251.071C341.576 250.975 341.975 250.905 342.377 250.859C342.839 250.784 343.304 250.732 343.771 250.701C344.322 250.661 344.95 250.589 345.654 250.589C346.359 250.589 347.119 250.549 347.941 250.589C348.764 250.628 349.643 250.694 350.563 250.774C352.559 251.009 354.531 251.393 356.463 251.922C358.38 252.479 360.245 253.184 362.042 254.027C362.857 254.437 363.645 254.813 364.336 255.235C365.026 255.658 365.682 256.034 366.253 256.417C366.825 256.799 367.327 257.169 367.767 257.486C368.206 257.803 368.569 258.106 368.854 258.357C369.173 258.602 369.469 258.871 369.74 259.162Z" fill="#FAFAFA"/>
<path d="M328.758 225.265L334.476 201.815C336.666 192.997 339.26 184.523 343.618 183.52V186.245L341.749 253.242C341.749 253.242 330.097 265.782 315.25 258.826C310.606 256.641 302.134 241.296 302.134 241.296C302.134 241.296 282.42 208.006 283.243 206.494C284.066 204.983 296.109 190.291 297.336 189.559L328.758 225.265Z" fill="#F8B738"/>
<path d="M387.599 176.88C398.965 178.939 411.761 185.216 417.654 201.3C419.802 207.174 435.45 250.477 435.45 250.477L408.763 249.949L404.453 241.032L406.545 255.519L408.351 276.177L340.961 277.253L341.435 246.127L342.084 184.219C342.084 184.219 342.837 183.282 354.462 177.217C361.672 173.448 387.599 176.88 387.599 176.88Z" fill="#F8B738"/>
<g opacity="0.2">
<path opacity="0.2" d="M394.321 218.288C395.43 231.356 396.699 235.396 397.808 248.464C397.834 249.701 398.07 250.927 398.505 252.094C398.738 252.674 399.112 253.194 399.596 253.613C400.081 254.031 400.663 254.336 401.294 254.503C403.261 254.879 405.813 256.225 406.364 254.404L404.502 241.817C404.102 239.986 403.484 238.204 402.661 236.504C398.526 227.812 396.999 227.304 394.293 218.288" fill="black"/>
</g>
<path d="M354.455 183.916L354.678 182.556L356.832 169.514C356.895 169.135 357.106 168.793 357.424 168.555C357.743 168.317 358.144 168.203 358.548 168.234L385.081 170.333C385.883 170.395 386.626 170.755 387.148 171.333C387.671 171.912 387.931 172.663 387.871 173.422L387.278 180.998L378.994 191.228L367.062 192.991" fill="#F8B738"/>
<path d="M341.129 208.435C341.233 208.435 341.31 218.651 341.31 231.251C341.31 243.85 341.233 254.067 341.129 254.067C341.024 254.067 340.947 243.85 340.947 231.251C340.947 218.651 341.031 208.435 341.129 208.435Z" fill="#263238"/>
<path d="M409.335 252.047C409.335 252.047 409.335 252.001 409.251 251.902C409.167 251.803 409.119 251.638 409.028 251.453L408.219 249.718L405.311 243.309L395.834 222.116C393.993 217.972 392.243 214.025 390.653 210.428C389.85 208.743 389.273 206.969 388.938 205.148C388.643 203.557 388.49 201.945 388.478 200.33C388.389 197.989 388.748 195.653 389.537 193.433L389.754 192.885L389.998 192.423C390.112 192.177 390.253 191.943 390.416 191.723L390.709 191.314C390.743 191.268 390.78 191.224 390.821 191.182C390.362 191.912 389.977 192.681 389.67 193.479C388.94 195.694 388.624 198.012 388.736 200.33C388.747 203.772 389.504 207.175 390.96 210.329L396.169 222.004L405.548 243.236L408.338 249.685L409.084 251.447L409.272 251.909C409.298 251.953 409.319 251.999 409.335 252.047Z" fill="#263238"/>
<path d="M395.869 179.183C395.625 179.418 395.367 179.638 395.095 179.843C394.311 180.409 393.456 180.881 392.55 181.249C391.114 181.816 389.611 182.215 388.073 182.437C386.04 182.736 383.992 182.928 381.937 183.011C379.649 183.104 377.153 183.064 374.475 183.11C371.631 183.106 368.797 183.434 366.037 184.087C362.98 184.771 360.214 186.315 358.102 188.516C357.05 189.714 356.296 191.122 355.898 192.634C355.472 194.185 355.501 195.817 355.982 197.353C356.248 198.111 356.642 198.825 357.146 199.465C357.655 200.087 358.296 200.6 359.029 200.97C359.74 201.339 360.551 201.499 361.358 201.432C362.148 201.355 362.879 201.002 363.408 200.442C363.88 199.853 364.215 199.176 364.393 198.457C364.571 197.737 364.587 196.99 364.44 196.264C364.325 195.547 364.089 194.852 363.743 194.205C363.399 193.574 362.985 192.979 362.509 192.43C360.645 190.396 358.134 188.991 355.354 188.423C352.945 187.886 350.434 187.913 348.039 188.503C346.069 188.985 344.188 189.748 342.46 190.766C341.145 191.543 339.904 192.426 338.751 193.406C337.795 194.198 337.119 194.885 336.659 195.334L336.143 195.862C336.086 195.925 336.023 195.982 335.954 196.033C336.775 195.051 337.685 194.139 338.674 193.307C339.816 192.308 341.053 191.411 342.37 190.628C344.114 189.578 346.019 188.79 348.018 188.291C350.453 187.673 353.011 187.633 355.466 188.173C358.318 188.742 360.896 190.176 362.809 192.258C363.296 192.809 363.721 193.406 364.078 194.04C364.43 194.72 364.665 195.448 364.775 196.198C364.897 196.963 364.883 197.741 364.733 198.502C364.583 199.293 364.215 200.033 363.666 200.647C363.08 201.269 362.269 201.662 361.393 201.749C360.514 201.828 359.629 201.655 358.855 201.254C358.076 200.86 357.395 200.316 356.853 199.657C356.321 198.985 355.907 198.236 355.626 197.439C355.125 195.842 355.096 194.146 355.542 192.535C355.949 190.97 356.729 189.514 357.823 188.278C359.986 186.032 362.815 184.457 365.94 183.757C368.73 183.112 371.595 182.797 374.468 182.82C377.153 182.78 379.649 182.82 381.923 182.761C383.97 182.693 386.011 182.519 388.038 182.239C389.567 182.031 391.065 181.655 392.501 181.117C393.402 180.771 394.259 180.328 395.053 179.797C395.332 179.619 395.521 179.454 395.66 179.362C395.724 179.296 395.794 179.236 395.869 179.183Z" fill="#FAFAFA"/>
<path d="M418.93 206.653C418.832 206.679 418.732 206.694 418.63 206.699C418.435 206.699 418.149 206.745 417.773 206.758C416.719 206.791 415.664 206.767 414.614 206.686C413.282 206.593 411.706 206.402 409.962 206.171C408.219 205.94 406.308 205.696 404.286 205.597C402.395 205.499 400.499 205.635 398.645 205.999C397.129 206.291 395.673 206.815 394.335 207.55C393.123 208.251 392.048 209.144 391.155 210.19C391.193 210.102 391.245 210.02 391.309 209.946C391.456 209.713 391.624 209.492 391.811 209.286C392.486 208.505 393.295 207.836 394.203 207.306C395.549 206.527 397.025 205.97 398.568 205.656C400.451 205.267 402.382 205.12 404.307 205.22C406.35 205.319 408.268 205.583 410.011 205.828C411.755 206.072 413.317 206.29 414.635 206.408C415.952 206.527 417.033 206.58 417.773 206.587C418.159 206.586 418.546 206.608 418.93 206.653Z" fill="#FAFAFA"/>
<path d="M402.173 236.24C400.862 235.952 399.514 235.843 398.17 235.917C396.594 236.018 395.035 236.281 393.519 236.702C391.741 237.158 389.754 237.824 387.522 238.478C385.099 239.255 382.563 239.672 380.005 239.712C377.059 239.711 374.144 239.138 371.442 238.029C368.438 236.828 365.766 234.99 363.632 232.657C362.477 231.438 361.535 230.052 360.842 228.551C360.105 226.999 359.828 225.285 360.04 223.595C360.283 221.891 361.161 220.325 362.516 219.179C363.189 218.624 363.996 218.234 364.866 218.044C365.717 217.874 366.599 217.897 367.439 218.111C368.279 218.326 369.053 218.726 369.698 219.278C370.328 219.825 370.767 220.542 370.954 221.331C371.134 222.104 371.068 222.91 370.765 223.648C370.472 224.357 370.028 225.001 369.461 225.542C368.38 226.567 367.073 227.353 365.633 227.845C364.955 228.089 364.255 228.272 363.541 228.393C363.192 228.452 362.844 228.525 362.502 228.571L361.463 228.69C358.915 228.929 356.342 228.757 353.855 228.182C351.804 227.72 349.827 227 347.976 226.043C346.577 225.328 345.265 224.469 344.064 223.483L343.367 222.908L342.795 222.361C342.487 222.084 342.198 221.789 341.931 221.476L341.428 220.909C341.371 220.847 341.32 220.781 341.275 220.711C341.343 220.765 341.405 220.825 341.463 220.889L341.986 221.43C342.263 221.733 342.559 222.019 342.872 222.288L343.451 222.823L344.148 223.384C345.354 224.343 346.666 225.177 348.06 225.872C349.901 226.803 351.863 227.5 353.897 227.944C356.359 228.499 358.903 228.656 361.421 228.406L362.439 228.287C362.781 228.235 363.136 228.162 363.471 228.103C364.169 227.983 364.853 227.802 365.514 227.561C366.907 227.081 368.171 226.317 369.217 225.324C369.751 224.813 370.168 224.204 370.444 223.535C370.718 222.855 370.779 222.115 370.619 221.404C370.412 220.677 369.999 220.017 369.426 219.496C368.852 218.975 368.138 218.612 367.362 218.447C366.568 218.23 365.728 218.207 364.922 218.382C364.115 218.556 363.369 218.921 362.753 219.443C361.462 220.532 360.628 222.025 360.403 223.648C360.203 225.274 360.468 226.922 361.17 228.419C361.845 229.885 362.758 231.241 363.876 232.439C365.974 234.729 368.598 236.535 371.546 237.719C374.206 238.818 377.075 239.392 379.977 239.408C382.509 239.379 385.022 238.978 387.425 238.22C389.649 237.56 391.609 236.94 393.443 236.498C394.974 236.091 396.548 235.845 398.136 235.765C398.714 235.731 399.294 235.731 399.872 235.765C400.367 235.838 400.792 235.871 401.127 235.943L401.887 236.122C401.988 236.148 402.084 236.188 402.173 236.24Z" fill="#FAFAFA"/>
<path d="M340.898 229.198C340.836 229.198 340.515 228.538 339.838 227.429C338.068 224.615 335.487 222.337 332.398 220.862C331.212 220.295 330.431 220.044 330.452 219.985C330.648 220.001 330.841 220.043 331.024 220.11C331.532 220.253 332.028 220.429 332.509 220.638C334.107 221.328 335.576 222.257 336.861 223.39C338.147 224.522 339.229 225.847 340.062 227.311C340.325 227.749 340.558 228.203 340.759 228.67C340.83 228.84 340.877 229.017 340.898 229.198Z" fill="#FAFAFA"/>
<path d="M313.842 257.446C313.842 257.446 313.793 257.393 313.73 257.281C313.667 257.169 313.563 256.991 313.444 256.786C313.193 256.351 312.831 255.697 312.384 254.852C311.089 252.468 310.02 249.978 309.191 247.414C308.636 245.633 308.301 243.797 308.193 241.943C308.138 240.907 308.182 239.869 308.326 238.841C308.499 237.753 308.775 236.682 309.149 235.64C309.963 233.388 311.372 231.37 313.242 229.779C314.241 228.912 315.415 228.245 316.694 227.82C317.973 227.394 319.33 227.219 320.683 227.304C322.088 227.404 323.401 228.008 324.351 228.994C324.802 229.481 325.131 230.059 325.311 230.685C325.491 231.311 325.518 231.967 325.39 232.604C325.239 233.229 324.894 233.796 324.399 234.234C323.916 234.653 323.332 234.954 322.698 235.112C321.47 235.414 320.167 235.266 319.051 234.696C318.015 234.167 317.11 233.436 316.394 232.551C315.708 231.732 315.143 230.828 314.713 229.865C313.959 228.137 313.646 226.264 313.8 224.4C313.941 222.862 314.416 221.368 315.195 220.011C315.772 218.987 316.51 218.053 317.384 217.239C317.931 216.723 318.531 216.261 319.176 215.86C319.393 215.721 319.574 215.635 319.692 215.569L319.874 215.483C319.874 215.483 319.651 215.635 319.218 215.919C318.596 216.339 318.014 216.812 317.482 217.331C316.646 218.152 315.942 219.084 315.39 220.097C314.649 221.436 314.205 222.905 314.086 224.413C313.951 226.241 314.276 228.073 315.034 229.759C315.458 230.694 316.011 231.571 316.68 232.366C317.374 233.213 318.248 233.913 319.246 234.419C320.288 234.95 321.505 235.087 322.649 234.802C323.236 234.672 323.774 234.391 324.203 233.99C324.633 233.59 324.937 233.085 325.083 232.531C325.193 231.948 325.164 231.349 324.998 230.778C324.831 230.207 324.532 229.678 324.121 229.231C323.231 228.312 322.003 227.75 320.69 227.66C319.387 227.579 318.08 227.748 316.848 228.158C315.616 228.567 314.484 229.208 313.521 230.043C311.696 231.597 310.316 233.563 309.511 235.759C309.135 236.778 308.858 237.827 308.682 238.894C308.537 239.904 308.488 240.924 308.535 241.943C308.633 243.777 308.951 245.595 309.484 247.361C310.287 249.919 311.313 252.409 312.552 254.806L313.549 256.786C313.654 256.997 313.737 257.169 313.807 257.301C313.877 257.433 313.842 257.446 313.842 257.446Z" fill="#FAFAFA"/>
<path d="M305.23 199.181C305.23 199.181 305.265 199.274 305.293 199.452C305.342 199.719 305.377 199.987 305.397 200.257C305.489 201.243 305.489 202.235 305.397 203.221C305.115 206.503 303.929 209.659 301.957 212.372C299.984 215.085 297.295 217.262 294.156 218.684C293.217 219.119 292.239 219.474 291.234 219.747C290.886 219.853 290.6 219.899 290.412 219.945C290.223 219.991 290.119 219.998 290.119 219.985C290.468 219.842 290.827 219.721 291.193 219.622C292.171 219.301 293.124 218.915 294.045 218.467C297.1 217.006 299.717 214.842 301.657 212.173C303.597 209.504 304.797 206.417 305.146 203.194C305.256 202.221 305.296 201.242 305.265 200.264C305.228 199.904 305.217 199.543 305.23 199.181Z" fill="#FAFAFA"/>
<path d="M425.032 227.799C423.994 228.414 423.083 229.201 422.34 230.122C421.643 230.974 420.945 232.102 420.157 233.29C419.293 234.62 418.296 235.869 417.18 237.019C415.138 239.107 412.717 240.83 410.032 242.108C409.224 242.495 408.39 242.832 407.536 243.118C407.224 243.233 406.902 243.322 406.573 243.382C406.862 243.225 407.165 243.095 407.48 242.992C408.066 242.748 408.916 242.405 409.914 241.89C412.519 240.565 414.875 238.841 416.887 236.788C417.992 235.656 418.984 234.43 419.851 233.125C420.544 232.035 421.3 230.982 422.117 229.97C422.684 229.293 423.359 228.703 424.118 228.221C424.324 228.092 424.541 227.979 424.767 227.885C424.948 227.819 425.032 227.786 425.032 227.799Z" fill="#FAFAFA"/>
<path d="M387.348 177.672C387.246 177.713 387.138 177.74 387.027 177.751L386.1 177.91C385.291 178.035 384.119 178.2 382.676 178.385C379.775 178.754 375.758 179.19 371.302 179.5C369.216 179.681 367.121 179.751 365.026 179.711C363.298 179.672 361.586 179.394 359.943 178.886C358.833 178.546 357.787 178.045 356.839 177.401C356.581 177.229 356.334 177.042 356.1 176.84C355.947 176.695 355.87 176.623 355.877 176.609C355.884 176.596 356.24 176.873 356.916 177.269C357.88 177.856 358.924 178.313 360.019 178.629C361.648 179.098 363.338 179.347 365.04 179.368C367.135 179.389 369.23 179.31 371.316 179.131C375.758 178.82 379.775 178.431 382.676 178.121L386.114 177.751C386.522 177.698 386.935 177.671 387.348 177.672Z" fill="#263238"/>
<path d="M435.136 255.149C435.661 257.703 435.586 260.334 434.916 262.857C434.247 265.38 432.999 267.732 431.261 269.748C429.524 271.763 427.339 273.392 424.862 274.519C422.385 275.646 419.677 276.244 416.929 276.269L364.106 275.715L365.5 259.525L410.729 253.097" fill="#B78876"/>
<path d="M368.736 260.231C368.492 260.304 365.445 259.01 362.711 257.816C359.811 256.544 356.628 255.96 353.436 256.113L340.843 256.72C340.843 256.72 341.617 258.7 342.935 259.36C344.253 260.02 352.153 260.231 352.153 260.231L351.749 260.621C350.097 262.231 347.844 263.165 345.473 263.221H344.266C343.373 263.154 342.491 262.99 341.638 262.733L338.534 261.545C337.593 261.149 336.603 261.208 336.191 262.106C335.78 263.003 336.094 264.033 338.66 265.254C340.089 265.914 345.403 267.676 345.403 267.676C345.44 268.392 345.545 269.103 345.717 269.801C345.947 270.534 348.032 271.267 348.032 271.267C348.574 272.353 349.194 273.402 349.887 274.408C350.131 274.672 352.021 275.233 354.036 275.768C357.285 276.628 360.725 276.603 363.959 275.695L368.757 274.336V260.476" fill="#B78876"/>
<path d="M351.512 269.28C349.293 269.227 347.118 268.684 345.159 267.696C345.159 267.617 346.554 268.118 348.318 268.547C350.082 268.976 351.519 269.181 351.512 269.28Z" fill="#AA6550"/>
<path d="M351.065 272.059C350.474 272.175 349.861 272.131 349.294 271.933C348.703 271.83 348.152 271.574 347.704 271.194C348.275 271.302 348.834 271.454 349.378 271.649C349.951 271.745 350.515 271.881 351.065 272.059Z" fill="#AA6550"/>
<path d="M353.367 259.156C353.091 259.523 352.765 259.853 352.397 260.139C351.562 260.894 350.641 261.558 349.65 262.119C348.652 262.671 347.566 263.067 346.435 263.294C345.981 263.409 345.511 263.458 345.041 263.439C346.599 263.1 348.104 262.57 349.517 261.862C350.486 261.309 351.407 260.684 352.272 259.994C352.61 259.684 352.976 259.404 353.367 259.156Z" fill="#AA6550"/>
<path d="M370.019 258.06L368.736 276.368H418.491C421.869 276.371 425.184 275.501 428.079 273.854C431.356 271.99 433.946 269.216 435.499 265.91C437.051 262.603 437.489 258.924 436.754 255.374C436.038 251.897 434.964 248.495 433.546 245.216L408.526 249.117L409.328 252.061L370.019 258.06Z" fill="#F8B738"/>
<path d="M420.855 250.523C420.69 250.568 420.522 250.603 420.353 250.628L418.895 250.879L413.519 251.724L395.834 254.364L378.129 256.931L372.76 257.671L371.295 257.855C371.124 257.878 370.952 257.891 370.779 257.895C370.944 257.841 371.115 257.803 371.288 257.783L372.739 257.539L378.094 256.687L395.779 254.047L413.519 251.46L418.888 250.721L420.353 250.536C420.519 250.515 420.687 250.51 420.855 250.523Z" fill="#263238"/>
<path d="M395.388 276.382C395.297 276.382 395.688 275.062 395.737 272.903C395.747 272.317 395.722 271.731 395.66 271.148C395.6 270.483 395.498 269.821 395.353 269.168C395.008 267.662 394.464 266.203 393.735 264.825C392.989 263.453 392.076 262.169 391.016 260.997L390.318 260.225C390.081 259.974 389.823 259.756 389.586 259.532C389.119 259.076 388.624 258.713 388.192 258.364C386.413 257.044 385.151 256.384 385.193 256.324C385.502 256.441 385.798 256.585 386.079 256.753C386.426 256.925 386.761 257.116 387.083 257.327C387.452 257.578 387.913 257.822 388.352 258.179C388.854 258.535 389.334 258.918 389.788 259.327C390.032 259.552 390.304 259.763 390.549 259.987L391.309 260.766C392.401 261.946 393.337 263.247 394.098 264.64C394.836 266.047 395.38 267.537 395.716 269.075C395.859 269.748 395.952 270.43 395.995 271.115C396.039 271.708 396.039 272.304 395.995 272.897C395.981 273.39 395.935 273.881 395.855 274.369C395.817 274.736 395.749 275.1 395.653 275.458C395.593 275.772 395.504 276.081 395.388 276.382Z" fill="#FAFAFA"/>
<path d="M425.68 275.002C424.903 274.998 424.129 274.912 423.372 274.745C422.48 274.551 421.614 274.261 420.792 273.88C419.702 273.367 418.717 272.674 417.884 271.834C416.873 270.804 416.139 269.559 415.743 268.204C415.523 267.451 415.399 266.675 415.374 265.894C415.323 265.068 415.394 264.24 415.583 263.432C415.769 262.573 416.119 261.752 416.615 261.01C417.132 260.224 417.852 259.574 418.707 259.123C419.591 258.635 420.607 258.405 421.629 258.463C422.154 258.497 422.666 258.632 423.135 258.859C423.603 259.085 424.019 259.4 424.355 259.783C424.704 260.16 424.966 260.602 425.124 261.08C425.283 261.559 425.334 262.063 425.276 262.561C425.19 263.045 424.992 263.504 424.695 263.906C424.398 264.308 424.011 264.642 423.56 264.884C421.873 265.721 419.929 265.973 418.065 265.597C415.42 265.207 413.003 263.954 411.231 262.054C409.46 260.154 408.446 257.728 408.365 255.196C408.321 254.46 408.387 253.722 408.561 253.004C408.496 253.731 408.478 254.46 408.505 255.189C408.635 257.175 409.321 259.093 410.492 260.746C411.365 261.959 412.491 262.991 413.801 263.778C415.11 264.564 416.576 265.089 418.107 265.32C419.888 265.682 421.746 265.449 423.365 264.66C423.77 264.444 424.118 264.145 424.386 263.785C424.654 263.426 424.834 263.014 424.913 262.581C424.954 262.129 424.901 261.674 424.756 261.242C424.611 260.81 424.377 260.409 424.068 260.063C423.759 259.717 423.381 259.431 422.955 259.223C422.529 259.016 422.064 258.889 421.587 258.852C420.641 258.791 419.698 258.995 418.874 259.439C418.099 259.878 417.434 260.469 416.922 261.173C416.411 261.877 416.066 262.677 415.911 263.518C415.722 264.301 415.649 265.105 415.694 265.907C415.714 266.663 415.828 267.415 416.036 268.145C416.404 269.464 417.102 270.68 418.072 271.689C418.87 272.517 419.814 273.207 420.862 273.728C421.665 274.117 422.512 274.42 423.386 274.633C424.85 274.943 425.687 274.956 425.68 275.002Z" fill="#FAFAFA"/>
<path d="M228.314 75.5502H103.707C96.4243 75.5502 89.4395 78.2885 84.2896 83.1627C79.1397 88.037 76.2465 94.6478 76.2465 101.541V143.57H49.3643L76.2465 169.013V197.584C76.2465 204.477 79.1397 211.088 84.2896 215.962C89.4395 220.837 96.4243 223.575 103.707 223.575H228.314C235.597 223.575 242.582 220.837 247.732 215.962C252.882 211.088 255.775 204.477 255.775 197.584V101.541C255.775 94.6478 252.882 88.037 247.732 83.1627C242.582 78.2885 235.597 75.5502 228.314 75.5502Z" fill="#F8B738"/>
<path d="M177.409 79.992C176.621 81.9258 177.973 84.0312 179.501 85.5228C181.028 87.0144 182.855 88.4268 183.336 90.4464C183.733 92.1426 183.071 93.9048 183.231 95.634C183.392 97.3632 184.403 98.9934 184.975 100.683C186.014 103.745 185.595 107.092 184.668 110.187C183.999 112.759 182.721 115.154 180.93 117.19C180.028 118.198 178.91 119.013 177.651 119.582C176.391 120.151 175.018 120.46 173.622 120.49C173.228 120.513 172.832 120.46 172.46 120.332C172.088 120.205 171.748 120.007 171.46 119.75C171.069 119.216 170.853 118.585 170.84 117.935C169.243 104.646 169.243 91.2286 170.84 77.9394" fill="#263238"/>
<path d="M175.937 122.819C182.004 122.569 187.611 128.066 187.129 133.795C193.273 135.214 197.589 141.61 196.411 147.484C196.013 149.424 195.1 151.272 194.974 153.239C194.835 155.39 195.672 157.483 196.083 159.595C196.873 163.444 196.451 167.428 194.87 171.052C193.914 173.237 192.129 175.494 189.633 175.56C188.787 175.526 187.963 175.296 187.233 174.89C186.504 174.484 185.891 173.914 185.449 173.23C184.58 171.847 184.006 170.315 183.761 168.722C182.68 163.561 182.367 158.261 180.86 153.199C179.354 148.137 176.425 143.147 171.593 140.58C168.922 139.154 165.714 138.481 163.587 136.389C162.518 135.247 161.804 133.846 161.527 132.343C161.25 130.839 161.42 129.292 162.018 127.875C162.645 126.47 163.578 125.207 164.755 124.166C165.933 123.126 167.329 122.332 168.852 121.836" fill="#263238"/>
<path d="M133.944 84.7242C133.874 82.269 136.266 80.3748 138.679 79.4442C141.091 78.5136 143.776 78.2034 145.924 76.8042C147.835 75.5898 149.111 73.6956 150.722 72.1842C152.711 70.2751 155.201 68.9014 157.936 68.2041C160.672 67.5068 163.554 67.5112 166.287 68.2167C169.02 68.9221 171.506 70.3034 173.488 72.2185C175.471 74.1336 176.879 76.5136 177.569 79.1142C178.496 82.6056 177.862 86.7372 174.954 89.0604C171.579 91.7532 166.586 91.1526 162.242 90.3144C157.897 89.4762 153.016 88.6512 149.404 91.0602C147.228 92.5056 145.973 94.8684 144.641 97.053C143.309 99.2376 141.642 101.462 139.125 102.287C136.608 103.112 133.184 101.686 133.086 99.1716" fill="#263238"/>
<path d="M144.167 85.2258C143.087 85.3363 142.09 85.8261 141.374 86.5984C140.657 87.3707 140.273 88.3694 140.297 89.397L142.884 144.837C142.995 151.384 153.107 155.06 160.512 154.895C167.995 154.73 168.232 151.259 168.329 145.028C168.483 134.627 168.469 130.72 168.476 130.779C168.483 130.838 177.925 129.274 179.856 117.579C180.812 111.778 180.484 102.26 179.947 94.479C179.466 87.4764 174.543 78.8964 167.172 79.6488L144.167 85.2258Z" fill="#FFBE9D"/>
<path d="M177.82 101.831C177.824 102.221 177.668 102.597 177.384 102.879C177.1 103.161 176.711 103.327 176.3 103.343C176.101 103.359 175.9 103.338 175.71 103.28C175.52 103.222 175.344 103.129 175.192 103.006C175.04 102.883 174.916 102.733 174.826 102.564C174.736 102.395 174.682 102.211 174.668 102.023C174.662 101.633 174.818 101.256 175.102 100.974C175.387 100.691 175.776 100.525 176.188 100.511C176.387 100.495 176.588 100.517 176.778 100.574C176.968 100.632 177.144 100.725 177.296 100.848C177.448 100.971 177.573 101.121 177.663 101.29C177.752 101.459 177.806 101.643 177.82 101.831Z" fill="#263238"/>
<path d="M177.778 99.4554C177.583 99.6534 176.384 98.7954 174.682 98.7954C172.981 98.7954 171.732 99.6138 171.544 99.4158C171.453 99.33 171.656 98.9736 172.2 98.5974C172.934 98.1136 173.808 97.8576 174.703 97.8648C175.588 97.8599 176.453 98.121 177.172 98.6106C177.695 99 177.876 99.3696 177.778 99.4554Z" fill="#263238"/>
<path d="M161.468 101.831C161.471 102.221 161.315 102.597 161.031 102.879C160.747 103.161 160.359 103.327 159.947 103.343C159.748 103.359 159.548 103.338 159.358 103.28C159.167 103.222 158.991 103.129 158.839 103.006C158.688 102.883 158.563 102.733 158.473 102.564C158.383 102.395 158.33 102.211 158.316 102.023C158.31 101.633 158.466 101.256 158.75 100.974C159.034 100.691 159.424 100.525 159.836 100.511C160.035 100.495 160.235 100.517 160.425 100.574C160.616 100.632 160.792 100.725 160.944 100.848C161.096 100.971 161.22 101.121 161.31 101.29C161.4 101.459 161.453 101.643 161.468 101.831Z" fill="#263238"/>
<path d="M161.084 99.792C160.889 99.99 159.689 99.132 157.988 99.132C156.286 99.132 155.038 99.9504 154.857 99.7524C154.766 99.6666 154.961 99.3102 155.505 98.934C156.239 98.449 157.114 98.1908 158.009 98.1948C158.895 98.1918 159.76 98.4553 160.477 98.9472C160.966 99.3498 161.147 99.7062 161.084 99.792Z" fill="#263238"/>
<path d="M167.255 111.725C167.255 111.632 168.301 111.461 170.045 111.25C170.477 111.203 170.889 111.118 170.965 110.84C170.997 110.415 170.895 109.99 170.672 109.619L169.375 106.491C167.583 102.036 166.279 98.373 166.474 98.307C166.67 98.241 168.274 101.798 170.066 106.227L171.307 109.375C171.577 109.871 171.659 110.44 171.537 110.986C171.476 111.13 171.382 111.259 171.261 111.364C171.14 111.469 170.996 111.547 170.84 111.593C170.613 111.652 170.378 111.683 170.142 111.685C168.329 111.804 167.262 111.817 167.255 111.725Z" fill="#263238"/>
<path d="M168.476 130.786C162.668 130.88 156.947 129.448 151.949 126.647C151.949 126.647 155.973 134.66 168.315 133.538L168.476 130.786Z" fill="#EB996E"/>
<path d="M166.544 115.606C166.216 115.215 165.787 114.912 165.298 114.724C164.809 114.537 164.278 114.472 163.755 114.536C163.379 114.568 163.015 114.672 162.683 114.841C162.351 115.01 162.058 115.241 161.823 115.52C161.596 115.789 161.463 116.118 161.44 116.461C161.418 116.805 161.508 117.147 161.698 117.44C161.971 117.73 162.329 117.936 162.727 118.03C163.125 118.124 163.544 118.103 163.929 117.968C164.732 117.698 165.469 117.279 166.098 116.734C166.291 116.607 166.457 116.445 166.586 116.259C166.65 116.17 166.684 116.066 166.684 115.959C166.684 115.852 166.65 115.747 166.586 115.658" fill="#EB996E"/>
<path d="M162.249 112.86C162.528 112.86 162.535 114.596 164.117 115.83C165.7 117.064 167.667 116.873 167.681 117.15C167.681 117.262 167.241 117.493 166.412 117.513C165.329 117.532 164.275 117.188 163.434 116.543C162.629 115.92 162.112 115.025 161.991 114.048C161.914 113.276 162.123 112.86 162.249 112.86Z" fill="#263238"/>
<path d="M161.781 96.9672C161.614 97.4094 159.913 97.2048 157.918 97.4358C155.924 97.6668 154.306 98.1882 154.041 97.7922C153.922 97.6074 154.201 97.1916 154.85 96.7692C155.716 96.2425 156.697 95.9093 157.719 95.7949C158.741 95.6806 159.778 95.7881 160.749 96.1092C161.509 96.4194 161.879 96.7626 161.781 96.9672Z" fill="#263238"/>
<path d="M177.123 94.7958C176.823 95.1588 175.651 94.7958 174.236 94.7958C172.82 94.7958 171.635 95.0466 171.363 94.6638C171.237 94.479 171.425 94.116 171.948 93.7662C172.648 93.3518 173.462 93.1426 174.287 93.1649C175.112 93.1872 175.912 93.4401 176.586 93.8916C177.123 94.2414 177.269 94.6176 177.123 94.7958Z" fill="#263238"/>
<path d="M135.555 123.625C137.255 123.95 139.013 123.888 140.683 123.444C142.353 123 143.887 122.186 145.16 121.07C146.432 119.954 147.406 118.568 148.001 117.026C148.595 115.483 148.794 113.829 148.581 112.2C148.197 109.329 146.566 106.418 147.619 103.699C149.013 100.115 154.32 99.0132 155.729 95.4294C156.544 93.3504 155.812 90.915 156.74 88.8756C157.611 86.9616 159.745 85.8594 161.823 85.1466C163.901 84.4338 166.119 83.9454 167.862 82.665C169.605 81.3846 170.686 78.969 169.564 77.1672C160.354 78.2131 151.308 80.2935 142.619 83.3646C140.603 84.0774 138.49 84.9354 137.298 86.625C136.043 88.4202 136.106 90.7302 136.21 92.8818C136.726 103.363 135.039 113.177 135.555 123.658" fill="#263238"/>
<path d="M132.619 120.338C132.549 120.328 132.481 120.308 132.417 120.278C132.218 120.213 132.028 120.124 131.852 120.014C131.173 119.598 130.639 119.001 130.318 118.298C129.79 117.187 129.648 115.946 129.913 114.754C130.333 113.205 131.096 111.759 132.152 110.51C133.233 109.085 134.606 107.639 135.541 105.798C136.039 104.862 136.317 103.836 136.357 102.788C136.316 101.677 136.081 100.579 135.659 99.5412C135.189 98.4188 134.941 97.2241 134.927 96.0168C134.995 94.725 135.395 93.4685 136.094 92.3571C136.793 91.2457 137.769 90.3133 138.937 89.6412C140.189 88.9945 141.578 88.6202 143.002 88.5456C144.381 88.4816 145.746 88.26 147.068 87.8856C148.309 87.4408 149.329 86.5718 149.927 85.4502C150.496 84.3467 150.949 83.1927 151.28 82.005C151.632 80.8655 152.099 79.7605 152.674 78.705C153.723 76.704 155.319 75.0059 157.298 73.788C159.044 72.7486 161.088 72.2461 163.148 72.3492C164.855 72.4327 166.48 73.0635 167.758 74.1378C168.71 74.948 169.419 75.9816 169.815 77.1342C170.072 77.8557 170.169 78.6196 170.101 79.3782C170.086 79.6421 170.04 79.9034 169.961 80.157C169.961 80.157 170.01 79.8864 170.031 79.3716C170.064 78.6246 169.946 77.8785 169.682 77.1738C169.202 75.8768 168.321 74.7464 167.153 73.9296C165.985 73.1128 164.585 72.6472 163.134 72.5934C161.131 72.5099 159.149 73.0122 157.458 74.0322C155.533 75.2295 153.982 76.8932 152.967 78.8502C152.404 79.9059 151.951 81.0112 151.614 82.1502C151.274 83.3594 150.807 84.5334 150.22 85.6548C149.896 86.2351 149.475 86.7613 148.971 87.2124C148.451 87.6684 147.839 88.0208 147.172 88.2486C145.814 88.6449 144.408 88.8799 142.988 88.9482C141.616 89.0167 140.276 89.3752 139.069 89.9976C137.953 90.6385 137.019 91.528 136.35 92.5887C135.68 93.6493 135.295 94.8489 135.227 96.0828C135.239 97.2529 135.476 98.4112 135.924 99.5016C136.368 100.572 136.616 101.706 136.656 102.854C136.609 103.944 136.315 105.011 135.792 105.983C134.816 107.87 133.428 109.283 132.34 110.715C131.29 111.928 130.525 113.339 130.095 114.853C129.817 116.006 129.931 117.212 130.422 118.298C130.724 118.991 131.227 119.588 131.873 120.021C132.34 120.245 132.626 120.311 132.619 120.338Z" fill="#455A64"/>
<path d="M168.455 69.4452C168.624 69.457 168.788 69.5044 168.936 69.5838C169.354 69.7519 169.746 69.974 170.101 70.2438C171.315 71.136 172.12 72.4371 172.348 73.8766C172.575 75.316 172.207 76.783 171.321 77.9724C171.063 78.3269 170.759 78.6485 170.414 78.9294C170.163 79.1274 170.01 79.2132 169.996 79.1934C170.389 78.7717 170.759 78.3311 171.105 77.8734C171.891 76.7136 172.206 75.3236 171.991 73.9607C171.777 72.5979 171.049 71.3548 169.94 70.4616C169.466 70.096 168.97 69.7566 168.455 69.4452Z" fill="#455A64"/>
<path d="M195.776 149.549C195.923 149.144 196.042 148.729 196.132 148.309C196.295 147.156 196.084 145.985 195.525 144.949C194.665 143.429 193.297 142.222 191.634 141.517C190.662 141.082 189.645 140.739 188.601 140.494C187.513 140.23 186.362 140.012 185.212 139.656C184.054 139.357 182.986 138.806 182.095 138.046C181.296 137.289 180.78 136.307 180.623 135.247C180.435 134.264 180.372 133.333 180.142 132.502C179.936 131.732 179.553 131.016 179.019 130.403C178.24 129.505 177.204 128.839 176.035 128.482C175.205 128.245 174.71 128.245 174.71 128.205C174.828 128.194 174.947 128.194 175.066 128.205C175.407 128.227 175.745 128.278 176.077 128.357C177.3 128.676 178.393 129.336 179.215 130.251C179.789 130.884 180.206 131.63 180.435 132.436C180.686 133.3 180.763 134.244 180.958 135.194C181.101 136.196 181.592 137.125 182.353 137.834C183.208 138.553 184.227 139.075 185.33 139.359C186.453 139.702 187.604 139.927 188.698 140.197C189.757 140.442 190.785 140.792 191.767 141.24C193.484 141.984 194.885 143.257 195.742 144.85C196.3 145.933 196.48 147.155 196.258 148.342C196.191 148.658 196.086 148.966 195.944 149.259C195.899 149.361 195.843 149.458 195.776 149.549Z" fill="#455A64"/>
<path d="M142.138 128.878C135.862 127.294 130.492 121.506 128.302 115.744C126.113 109.982 126.113 103.693 126.678 97.5942C127.082 93.1788 127.905 88.506 131.001 85.1796C135.673 80.1636 140.764 77.6028 147.793 77.814" fill="#263238"/>
<path d="M178.608 141.748L172.785 140.362C173.42 139.949 173.883 139.34 174.094 138.639C174.305 137.938 174.252 137.189 173.943 136.521C173.574 135.665 172.964 134.921 172.18 134.371C171.395 133.82 170.466 133.484 169.494 133.399L142.953 130.561C142.489 130.503 142.018 130.593 141.615 130.818C141.211 131.043 140.9 131.389 140.729 131.802C139.553 134.636 139.513 136.968 140.61 138.798H140.485L135.366 139.762L126.692 212.19L183.51 209.675L178.608 141.748Z" fill="#F5F5F5"/>
<path d="M170.254 140.639C169.905 140.736 169.548 140.802 169.187 140.837C168.49 140.943 167.493 141.055 166.251 141.174C159.755 141.745 153.206 141.436 146.803 140.257C145.575 140.026 144.592 139.814 143.916 139.643C143.56 139.578 143.212 139.48 142.877 139.352C143.237 139.377 143.594 139.433 143.944 139.517C144.641 139.643 145.624 139.821 146.852 140.019C153.249 141.061 159.756 141.367 166.23 140.93C167.472 140.851 168.476 140.765 169.173 140.699C169.531 140.652 169.893 140.632 170.254 140.639Z" fill="#263238"/>
<path d="M144.571 152.15C145.13 151.051 145.795 150.004 146.559 149.021C147.225 147.977 147.993 146.993 148.853 146.084C148.293 147.184 147.625 148.231 146.858 149.213C146.196 150.258 145.43 151.242 144.571 152.15Z" fill="#E0E0E0"/>
<path d="M162.883 153.377C161.111 151.655 159.516 149.776 158.12 147.767C159.049 148.59 159.895 149.494 160.645 150.467C161.489 151.366 162.238 152.341 162.883 153.377Z" fill="#E0E0E0"/>
<path d="M154.376 162.584C153.975 161.41 153.688 160.204 153.518 158.981C153.228 157.778 153.062 156.551 153.023 155.318C153.425 156.492 153.712 157.698 153.881 158.921C154.163 160.126 154.329 161.352 154.376 162.584Z" fill="#E0E0E0"/>
<path d="M168.357 163.152C167.373 164.311 166.296 165.396 165.136 166.399C164.058 167.485 162.892 168.489 161.649 169.402C162.633 168.243 163.71 167.158 164.871 166.155C165.952 165.074 167.118 164.07 168.357 163.152Z" fill="#E0E0E0"/>
<path d="M149.606 175.494C147.036 174.041 144.943 171.941 143.56 169.429C143.658 169.369 144.725 170.953 146.405 172.623C148.086 174.293 149.676 175.408 149.606 175.494Z" fill="#E0E0E0"/>
<path d="M155.631 185.024C155.631 185.123 154.041 185.605 152.2 186.536C150.359 187.466 149.013 188.443 148.943 188.357C149.821 187.468 150.87 186.745 152.033 186.226C153.139 185.609 154.361 185.201 155.631 185.024Z" fill="#E0E0E0"/>
<path d="M165.428 185.638C165.013 185.305 164.641 184.926 164.32 184.51C163.678 183.784 162.82 182.747 161.928 181.566C161.035 180.385 160.282 179.282 159.759 178.464C159.448 178.041 159.19 177.585 158.992 177.104C159.363 177.481 159.692 177.892 159.975 178.332L162.228 181.368L164.522 184.364C164.871 184.757 165.175 185.184 165.428 185.638Z" fill="#E0E0E0"/>
<path d="M166.412 193.769C165.056 194.219 163.653 194.529 162.228 194.693C160.817 194.972 159.38 195.107 157.939 195.096C159.332 194.765 160.746 194.518 162.172 194.357C163.572 194.082 164.987 193.886 166.412 193.769Z" fill="#E0E0E0"/>
<path d="M150.547 139.616C150.499 139.616 150.833 139.22 151.119 138.521C151.473 137.605 151.579 136.62 151.426 135.656C151.253 134.685 150.951 133.738 150.526 132.838C150.321 132.47 150.162 132.08 150.052 131.677C150.343 131.993 150.579 132.352 150.75 132.739C151.257 133.634 151.603 134.602 151.775 135.604C151.943 136.627 151.796 137.674 151.349 138.62C151.193 139.021 150.914 139.368 150.547 139.616Z" fill="#E0E0E0"/>
<path d="M161.161 134.191C161.658 134.839 162.013 135.575 162.206 136.354C162.399 137.134 162.425 137.943 162.284 138.732C162.179 138.732 162.165 137.683 161.851 136.435C161.537 135.188 161.084 134.244 161.161 134.191Z" fill="#E0E0E0"/>
<path d="M209.033 185.797L235.462 141.86L238.648 134.237C238.648 134.237 246.891 117.473 247.463 115.757C248.125 113.777 249.29 113.619 250.043 113.896C251.214 114.338 251.591 115.988 251.075 117.698C250.894 118.285 247.693 127.499 247.693 127.499C248.554 126.797 249.467 126.155 250.426 125.578C252.456 124.258 256.172 124.324 259.617 125.486C263.062 126.647 263.913 127.261 263.501 128.542C263.41 128.782 263.264 129 263.072 129.179C262.88 129.359 262.648 129.495 262.393 129.578C261.582 129.898 260.673 129.917 259.847 129.631C254.311 127.849 251.856 130.211 251.856 130.211L251.445 131.208C251.445 131.208 255.629 129.947 257.972 131.729C258.321 131.991 258.615 132.314 258.836 132.68C259.594 132.914 260.275 133.332 260.81 133.892C261.346 134.451 261.717 135.134 261.888 135.871C262.059 136.608 262.024 137.375 261.786 138.096C261.548 138.816 261.115 139.466 260.531 139.979C260.277 140.254 259.941 140.448 259.567 140.538C259.194 140.627 258.8 140.608 258.439 140.481C258.101 140.263 257.829 139.965 257.651 139.616C257.537 139.442 257.409 139.276 257.267 139.121L255.691 141.761C255.691 141.761 251.807 147.503 250.412 150.19L232.212 196.079C231.614 197.59 230.703 198.973 229.534 200.147C228.365 201.321 226.96 202.262 225.402 202.917C223.844 203.571 222.164 203.925 220.459 203.958C218.755 203.991 217.061 203.702 215.476 203.108C213.766 202.469 212.22 201.49 210.945 200.237C209.669 198.983 208.693 197.485 208.082 195.844C207.471 194.202 207.239 192.456 207.404 190.722C207.568 188.989 208.123 187.309 209.033 185.797Z" fill="#FFBE9D"/>
<path d="M237.282 141.709C238.216 142.289 239.506 141.893 240.343 141.207C241.18 140.521 241.738 139.577 242.546 138.831C244.897 136.607 248.822 136.396 251.075 134.066C251.389 133.742 251.668 133.247 251.396 132.891C251.124 132.535 250.622 132.601 250.203 132.68L239.388 134.706" fill="#FFBE9D"/>
<path d="M239.388 134.706C239.752 134.55 240.137 134.439 240.531 134.376C241.277 134.198 242.365 133.967 243.704 133.716L248.418 132.772L249.813 132.502C250.35 132.315 250.943 132.334 251.465 132.554C251.615 132.659 251.728 132.804 251.79 132.969C251.852 133.135 251.86 133.315 251.814 133.485C251.742 133.765 251.598 134.023 251.396 134.237C251.031 134.619 250.622 134.96 250.175 135.254C248.376 136.435 246.403 136.917 244.827 137.702C244.075 138.039 243.383 138.484 242.777 139.022C242.219 139.531 241.779 140.111 241.319 140.606C240.988 141.043 240.56 141.406 240.065 141.669C239.57 141.933 239.02 142.09 238.453 142.131C237.623 142.131 237.282 141.742 237.31 141.735C237.673 141.853 238.055 141.909 238.439 141.9C238.954 141.819 239.445 141.639 239.882 141.37C240.318 141.1 240.692 140.748 240.978 140.336C241.424 139.759 241.901 139.204 242.407 138.673C243.039 138.08 243.766 137.585 244.562 137.207C246.187 136.376 248.153 135.887 249.813 134.765C250.213 134.497 250.582 134.189 250.915 133.848C251.221 133.525 251.326 133.135 251.11 133.023C250.894 132.911 250.412 132.964 249.931 133.056L248.537 133.3L243.795 134.125C242.442 134.35 241.347 134.521 240.587 134.627C240.194 134.713 239.789 134.739 239.388 134.706Z" fill="#EB996E"/>
<path d="M251.298 131.221C251.575 130.609 252 130.066 252.539 129.637C253.143 129.209 253.877 128.977 254.631 128.977C255.579 128.983 256.521 129.13 257.421 129.413C258.34 129.706 259.289 129.91 260.252 130.02C261.06 130.108 261.879 129.989 262.623 129.677C262.879 129.565 263.103 129.398 263.279 129.19C263.454 128.981 263.576 128.737 263.634 128.476C263.687 128.292 263.687 128.098 263.634 127.915C263.592 127.915 263.592 128.113 263.487 128.443C263.411 128.665 263.284 128.869 263.115 129.04C262.946 129.211 262.74 129.345 262.511 129.433C261.801 129.682 261.038 129.764 260.287 129.67C259.351 129.531 258.431 129.31 257.539 129.01C256.608 128.72 255.632 128.577 254.652 128.588C253.829 128.606 253.036 128.885 252.4 129.38C251.978 129.712 251.654 130.142 251.458 130.627C251.284 131.017 251.27 131.215 251.298 131.221Z" fill="#EB996E"/>
<path d="M251.263 117.038C250.99 117.628 250.77 118.24 250.608 118.866C250.196 120.133 249.708 121.638 249.164 123.301C248.62 124.964 248.083 126.456 247.651 127.717C247.399 128.315 247.205 128.933 247.072 129.565C247.419 129.009 247.704 128.42 247.923 127.809C248.383 126.7 248.969 125.169 249.555 123.42C250.14 121.671 250.594 120.12 250.887 118.939C251.082 118.319 251.209 117.682 251.263 117.038Z" fill="#EB996E"/>
<path d="M252.79 133.98C253.003 134.009 253.219 134.009 253.432 133.98C253.7 133.937 253.974 133.949 254.236 134.015C254.498 134.081 254.743 134.199 254.952 134.363C255.073 134.484 255.159 134.633 255.202 134.795C255.245 134.956 255.243 135.126 255.196 135.287C255.084 135.692 254.917 136.082 254.701 136.448C254.422 136.907 254.33 137.448 254.443 137.966C254.538 138.241 254.7 138.491 254.916 138.696C255.131 138.902 255.394 139.056 255.684 139.148C255.97 139.234 256.272 139.263 256.571 139.235C256.869 139.207 257.158 139.121 257.421 138.983C257.909 138.747 258.31 138.376 258.571 137.92C258.949 137.168 259.207 136.368 259.338 135.544C259.44 134.992 259.44 134.427 259.338 133.874C259.316 133.667 259.232 133.47 259.094 133.307C259.059 133.307 259.15 133.518 259.185 133.894C259.215 134.433 259.165 134.972 259.038 135.498C258.873 136.278 258.601 137.035 258.23 137.749C258.003 138.15 257.641 138.47 257.202 138.657C256.764 138.845 256.271 138.89 255.803 138.785C255.573 138.715 255.364 138.594 255.192 138.434C255.02 138.274 254.89 138.077 254.813 137.861C254.722 137.43 254.798 136.982 255.029 136.6C255.246 136.201 255.41 135.777 255.517 135.34C255.564 135.13 255.553 134.913 255.486 134.708C255.419 134.504 255.297 134.319 255.133 134.171C254.891 133.99 254.607 133.864 254.305 133.805C254.002 133.745 253.689 133.753 253.39 133.828C253.183 133.848 252.98 133.899 252.79 133.98Z" fill="#EB996E"/>
<path d="M257.351 138.6C257.351 138.6 257.218 138.772 257.232 139.141C257.252 139.401 257.335 139.652 257.476 139.875C257.616 140.099 257.81 140.288 258.041 140.428C258.399 140.623 258.804 140.725 259.216 140.725C259.629 140.725 260.034 140.623 260.391 140.428C261.251 139.959 261.886 139.192 262.162 138.29C262.466 137.406 262.466 136.454 262.162 135.571C261.915 134.856 261.469 134.218 260.872 133.723C260.479 133.389 260.022 133.13 259.527 132.957C259.35 132.877 259.157 132.836 258.962 132.838C259.583 133.123 260.16 133.487 260.677 133.921C261.262 134.461 261.676 135.145 261.87 135.897C262.065 136.648 262.033 137.436 261.779 138.171C261.53 138.982 260.97 139.676 260.21 140.118C259.906 140.287 259.562 140.38 259.209 140.389C258.857 140.399 258.508 140.323 258.195 140.171C257.987 140.056 257.807 139.901 257.668 139.715C257.528 139.53 257.432 139.318 257.386 139.095C257.316 138.805 257.386 138.6 257.351 138.6Z" fill="#EB996E"/>
<path d="M248.551 142.745C248.275 142.568 247.949 142.474 247.616 142.474C246.765 142.396 245.911 142.589 245.189 143.022L245.489 143.213C245.583 142.778 245.649 142.337 245.685 141.893C245.929 139.346 245.071 137.379 244.987 137.432C245.255 138.893 245.356 140.378 245.287 141.86C245.253 142.283 245.195 142.704 245.113 143.121L245.029 143.55L245.413 143.306C246.066 142.902 246.829 142.687 247.609 142.685C248.188 142.699 248.537 142.791 248.551 142.745Z" fill="#EB996E"/>
<path d="M254.052 127.09C253.941 127.09 254.094 127.882 254.833 128.489C255.573 129.096 256.402 129.149 256.402 129.037C256.402 128.924 255.74 128.733 255.105 128.198C254.471 127.664 254.164 127.05 254.052 127.09Z" fill="#EB996E"/>
<path d="M171.544 222.255L199.193 222.512L194.556 203.524L196.111 207.108C197.544 210.417 199.985 213.247 203.123 215.239C206.261 217.232 209.954 218.295 213.733 218.295C222.477 218.295 228.523 212.137 232.219 204.64C240.866 187.11 249.199 158.882 249.199 158.882L232.345 144.863C220.141 166.709 208.677 185.678 208.677 185.678C208.677 185.678 205.365 176.154 202.806 167.653C200.246 159.152 200.267 154.691 196.341 150.454C190.295 143.933 181.697 142.316 173.692 140.362L173.392 175.633L171.544 222.255Z" fill="#F8B738"/>
<path d="M139.906 196.02L190.254 205.26L192.701 223.568H115.506C113.393 223.593 111.298 223.2 109.354 222.415C107.41 221.631 105.661 220.471 104.217 219.01C102.774 217.549 101.668 215.82 100.97 213.932C100.272 212.044 99.9981 210.039 100.165 208.045C101.274 194.7 102.48 178.266 103.401 171.316C104.098 165.898 106.399 160.294 109.098 155.476C112.996 148.533 125.987 139.636 137.375 139.174L139.53 184.562" fill="#F8B738"/>
<g opacity="0.4">
<path opacity="0.4" d="M171.544 222.255L199.193 222.512L194.556 203.524L196.111 207.108C197.544 210.417 199.985 213.247 203.123 215.239C206.261 217.232 209.954 218.295 213.733 218.295C222.477 218.295 228.523 212.137 232.219 204.64C240.866 187.11 249.199 158.882 249.199 158.882L232.345 144.863C220.141 166.709 208.677 185.678 208.677 185.678C208.677 185.678 205.365 176.154 202.806 167.653C200.246 159.152 200.267 154.691 196.341 150.454C190.295 143.933 181.697 142.316 173.692 140.362L173.392 175.633L171.544 222.255Z" fill="black"/>
<path opacity="0.4" d="M139.906 196.02L185.316 203.9C186.242 204.063 187.095 204.481 187.769 205.102C188.443 205.724 188.908 206.521 189.103 207.392L192.701 223.608H115.506C113.393 223.633 111.298 223.24 109.354 222.455C107.41 221.67 105.661 220.51 104.217 219.05C102.774 217.589 101.668 215.859 100.97 213.972C100.272 212.084 99.9981 210.079 100.165 208.085C101.274 194.74 102.48 178.306 103.401 171.356C104.098 165.937 106.399 160.334 109.098 155.516C112.996 148.573 125.987 139.676 137.375 139.214L139.53 184.602" fill="black"/>
</g>
<path d="M130.318 194.66C130.3 194.516 130.3 194.369 130.318 194.225C130.318 193.901 130.318 193.486 130.318 192.977C130.318 191.849 130.318 190.291 130.318 188.357C130.318 184.483 130.241 179.117 129.927 173.224C129.767 170.267 129.565 167.455 129.348 164.908C129.247 162.646 128.909 160.4 128.337 158.202C127.938 156.735 127.179 155.378 126.12 154.242C125.71 153.846 125.277 153.471 124.823 153.12C125.355 153.379 125.838 153.72 126.252 154.13C127.381 155.258 128.194 156.635 128.616 158.136C129.225 160.352 129.59 162.621 129.704 164.908C129.941 167.462 130.15 170.273 130.311 173.23C130.632 179.17 130.666 184.51 130.597 188.41C130.555 190.351 130.499 191.921 130.45 193.03L130.374 194.278C130.371 194.407 130.352 194.535 130.318 194.66Z" fill="#263238"/>
<path d="M189.277 206.58C188.746 206.025 188.128 205.55 187.443 205.174C186.63 204.755 185.766 204.429 184.87 204.204C183.831 203.92 182.611 203.702 181.265 203.445C175.881 202.402 168.455 200.957 160.226 199.485C151.998 198.013 144.508 196.845 139.09 196.027L132.668 195.056L130.924 194.779C130.719 194.755 130.516 194.716 130.318 194.66C130.524 194.661 130.729 194.679 130.931 194.713L132.689 194.924C134.209 195.116 136.412 195.406 139.125 195.789C144.557 196.555 152.054 197.69 160.289 199.148C168.525 200.607 175.951 202.085 181.314 203.181C182.66 203.458 183.88 203.696 184.926 203.999C185.831 204.242 186.701 204.592 187.513 205.042C188.035 205.321 188.506 205.678 188.908 206.098C189.015 206.203 189.113 206.315 189.201 206.435C189.249 206.514 189.284 206.58 189.277 206.58Z" fill="#263238"/>
<path d="M130.471 194.66C130.471 194.72 129.544 194.924 128.107 195.479C127.269 195.807 126.453 196.186 125.667 196.614C124.715 197.151 123.808 197.755 122.954 198.422C122.123 199.104 121.349 199.845 120.639 200.64C120.054 201.295 119.519 201.988 119.035 202.712C118.212 203.96 117.835 204.805 117.773 204.778C117.816 204.566 117.889 204.359 117.989 204.164C118.226 203.622 118.501 203.095 118.812 202.587C119.277 201.834 119.802 201.115 120.381 200.435C121.812 198.773 123.563 197.383 125.541 196.337C126.342 195.909 127.18 195.545 128.044 195.248C128.626 195.042 129.223 194.877 129.83 194.753C130.038 194.694 130.254 194.663 130.471 194.66Z" fill="#263238"/>
<path d="M195.484 206.065C195.436 205.916 195.401 205.764 195.379 205.61C195.323 205.28 195.246 204.844 195.156 204.29C194.961 203.148 194.703 201.498 194.41 199.452C193.824 195.367 193.113 189.704 192.513 183.434C191.913 177.164 191.558 171.475 191.362 167.35C191.265 165.29 191.209 163.621 191.181 162.466C191.181 161.916 191.181 161.476 191.181 161.146C191.166 160.992 191.166 160.837 191.181 160.684C191.219 160.835 191.237 160.99 191.237 161.146L191.327 162.466C191.404 163.654 191.502 165.31 191.627 167.336C191.885 171.455 192.29 177.137 192.882 183.401C193.475 189.664 194.152 195.327 194.675 199.419C194.933 201.439 195.149 203.082 195.302 204.27C195.365 204.818 195.421 205.253 195.463 205.59C195.491 205.747 195.498 205.907 195.484 206.065Z" fill="#263238"/>
<path d="M212.178 198.97C212.178 198.97 212.017 198.825 211.773 198.535C211.435 198.113 211.125 197.673 210.846 197.215C208.974 194.192 208.112 190.704 208.37 187.209C208.405 186.683 208.48 186.161 208.593 185.645C208.618 185.452 208.67 185.264 208.747 185.084C208.81 185.084 208.677 185.902 208.628 187.222C208.512 190.668 209.353 194.081 211.069 197.122C211.724 198.264 212.233 198.931 212.178 198.97Z" fill="#263238"/>
<path d="M130.115 170.135C130.115 170.135 130.025 170.168 129.857 170.188C129.606 170.226 129.352 170.25 129.097 170.26C128.162 170.297 127.225 170.226 126.308 170.049C124.946 169.79 123.616 169.396 122.34 168.874C120.897 168.307 119.363 167.554 117.759 166.822C116.257 166.108 114.703 165.499 113.107 165C111.813 164.589 110.467 164.338 109.105 164.254C107.843 164.215 106.581 164.351 105.36 164.657C105.435 164.61 105.517 164.574 105.604 164.551C105.83 164.458 106.063 164.38 106.302 164.32C107.21 164.09 108.15 163.987 109.091 164.017C110.483 164.058 111.863 164.28 113.191 164.677C114.807 165.169 116.379 165.782 117.891 166.511C119.502 167.264 121.022 168.003 122.445 168.577C123.697 169.104 125 169.515 126.336 169.805C127.579 170.045 128.847 170.156 130.115 170.135Z" fill="#FAFAFA"/>
<path d="M138.769 168.531C137.43 168.917 136.058 169.195 134.669 169.363C133.293 169.646 131.893 169.812 130.485 169.858C131.825 169.472 133.196 169.193 134.585 169.026C135.961 168.742 137.362 168.576 138.769 168.531Z" fill="#FAFAFA"/>
<path d="M129.802 182.695C129.481 182.866 129.142 183.005 128.791 183.11C128.128 183.355 127.159 183.685 125.952 184.054C122.798 185.012 119.578 185.766 116.315 186.311C114.405 186.628 112.571 186.859 110.897 187.018C109.413 187.199 107.913 187.237 106.42 187.13C105.408 187.052 104.422 186.785 103.519 186.344C103.274 186.224 103.04 186.082 102.822 185.922C102.741 185.87 102.669 185.808 102.606 185.737C102.606 185.737 102.94 185.942 103.575 186.226C104.479 186.612 105.451 186.836 106.441 186.886C107.915 186.958 109.393 186.896 110.855 186.701C112.522 186.523 114.342 186.285 116.246 185.968C119.493 185.423 122.706 184.707 125.869 183.823C127.082 183.48 128.058 183.163 128.735 182.985C129.082 182.863 129.439 182.766 129.802 182.695Z" fill="#FAFAFA"/>
<path d="M138.539 186.173C137.283 186.362 136.01 186.439 134.739 186.404C133.471 186.479 132.199 186.442 130.938 186.292C132.195 186.103 133.467 186.025 134.739 186.061C136.007 185.985 137.279 186.023 138.539 186.173Z" fill="#FAFAFA"/>
<path d="M102.654 216.242C102.662 216.121 102.688 216.001 102.731 215.886C102.801 215.622 102.898 215.299 103.01 214.896L103.219 214.183C103.31 213.926 103.428 213.655 103.54 213.358C103.791 212.684 104.079 212.023 104.405 211.378L104.97 210.25C105.172 209.854 105.43 209.471 105.667 209.062C106.193 208.196 106.765 207.357 107.382 206.547C110.231 202.819 113.946 199.76 118.24 197.604C119.174 197.137 120.133 196.716 121.113 196.343C121.58 196.178 122.012 195.987 122.452 195.855L123.714 195.479C124.437 195.261 125.173 195.082 125.917 194.944C126.245 194.878 126.545 194.806 126.824 194.759L127.605 194.66L128.679 194.535C128.804 194.517 128.931 194.517 129.055 194.535C128.937 194.578 128.812 194.607 128.686 194.621L127.626 194.812L126.859 194.938L125.959 195.149C125.318 195.314 124.565 195.452 123.791 195.73L122.549 196.126C122.117 196.264 121.685 196.456 121.231 196.627C120.266 197.006 119.321 197.432 118.4 197.901C116.303 198.999 114.329 200.295 112.508 201.769C110.709 203.271 109.073 204.94 107.626 206.752C106.999 207.61 106.378 208.415 105.904 209.227C105.66 209.629 105.402 210.005 105.207 210.395L104.621 211.504C104.223 212.203 103.979 212.876 103.714 213.484C103.596 213.774 103.47 214.045 103.373 214.295L103.129 214.995L102.787 215.965C102.754 216.062 102.709 216.155 102.654 216.242Z" fill="#FAFAFA"/>
<path d="M137.626 195.967C136.459 196.926 135.49 198.081 134.767 199.373C134.006 200.785 133.466 202.295 133.163 203.854C132.802 205.772 132.569 207.71 132.465 209.656C132.379 211.616 132.146 213.568 131.768 215.497C131.427 217.078 130.837 218.602 130.018 220.018C129.471 220.967 128.764 221.825 127.926 222.559C127.697 222.759 127.453 222.942 127.194 223.106C127.019 223.219 126.922 223.278 126.915 223.265C128.102 222.327 129.091 221.185 129.83 219.899C130.602 218.494 131.156 216.992 131.475 215.437C131.846 213.521 132.079 211.582 132.173 209.636C132.263 207.674 132.496 205.72 132.87 203.788C133.195 202.207 133.768 200.681 134.571 199.261C135.119 198.303 135.826 197.434 136.663 196.687C136.883 196.488 137.116 196.302 137.361 196.132C137.441 196.067 137.53 196.011 137.626 195.967Z" fill="#FAFAFA"/>
<path d="M149.529 223.681C149.432 223.681 149.529 217.991 149.787 210.982C150.045 203.973 150.31 198.29 150.408 198.29C150.506 198.29 150.408 203.98 150.15 210.995C149.892 218.011 149.627 223.687 149.529 223.681Z" fill="#FAFAFA"/>
<path d="M168.455 222.704C168.324 222.439 168.221 222.163 168.148 221.879C168.035 221.554 167.939 221.223 167.862 220.889C167.771 220.499 167.646 220.057 167.569 219.569C167.352 218.405 167.229 217.226 167.2 216.044C167.131 213.14 167.603 210.247 168.594 207.497C168.998 206.377 169.49 205.288 170.066 204.237C170.296 203.782 170.554 203.399 170.763 203.056C170.94 202.757 171.136 202.468 171.349 202.191C171.504 201.939 171.689 201.704 171.9 201.491C171.962 201.524 171.202 202.547 170.289 204.349C169.747 205.4 169.281 206.485 168.894 207.596C167.939 210.318 167.468 213.17 167.499 216.038C167.515 217.206 167.611 218.372 167.785 219.529C168.134 221.496 168.525 222.684 168.455 222.704Z" fill="#FAFAFA"/>
<path d="M136.315 149.761C136.315 149.813 135.213 149.358 133.4 148.804C128.677 147.361 123.673 146.941 118.756 147.576C116.873 147.82 115.722 148.097 115.708 148.038C115.959 147.924 116.224 147.842 116.496 147.794C117.226 147.603 117.966 147.451 118.714 147.338C123.668 146.559 128.75 146.984 133.484 148.573C134.195 148.81 134.893 149.081 135.576 149.384C135.837 149.481 136.086 149.607 136.315 149.761Z" fill="#FAFAFA"/>
<path d="M191.404 177.54C190.542 177.583 189.677 177.569 188.817 177.5C187.22 177.441 185.017 177.362 182.583 177.309C180.149 177.256 177.946 177.223 176.349 177.21C175.485 177.236 174.621 177.207 173.762 177.124C173.99 177.073 174.224 177.047 174.459 177.045C174.905 177.045 175.554 176.986 176.356 176.966C177.953 176.92 180.156 176.906 182.597 176.966C185.037 177.025 187.241 177.144 188.873 177.269C189.668 177.329 190.309 177.382 190.756 177.434C190.975 177.448 191.193 177.483 191.404 177.54Z" fill="#FAFAFA"/>
<path d="M205.169 175.039C205.169 175.098 204.298 175.382 202.938 176.015C199.381 177.672 196.368 180.213 194.221 183.368C193.398 184.576 193.001 185.381 192.945 185.348C192.984 185.139 193.059 184.939 193.168 184.754C193.413 184.229 193.692 183.72 194.005 183.229C195.028 181.597 196.312 180.126 197.813 178.867C199.309 177.604 200.999 176.565 202.826 175.784C203.378 175.55 203.944 175.347 204.521 175.177C204.73 175.104 204.948 175.058 205.169 175.039Z" fill="#FAFAFA"/>
<path d="M198.377 153.886C197.177 153.847 195.978 154.005 194.835 154.354C193.601 154.762 192.404 155.265 191.258 155.859C189.842 156.602 188.363 157.231 186.837 157.74C184.015 158.596 181.014 158.779 178.099 158.275C177.223 158.124 176.362 157.903 175.526 157.615C175.213 157.522 174.911 157.398 174.626 157.245C174.626 157.179 175.937 157.7 178.113 158.037C180.987 158.462 183.926 158.247 186.697 157.41C188.206 156.905 189.673 156.291 191.083 155.575C192.251 154.989 193.471 154.503 194.73 154.123C195.587 153.866 196.482 153.743 197.38 153.76C197.614 153.767 197.847 153.789 198.078 153.826C198.294 153.853 198.384 153.872 198.377 153.886Z" fill="#FAFAFA"/>
<path d="M194.898 198.119C194.645 198.271 194.373 198.393 194.089 198.482C193.824 198.587 193.496 198.713 193.106 198.832C192.715 198.95 192.276 199.109 191.781 199.228C190.613 199.536 189.425 199.769 188.224 199.927C186.754 200.108 185.271 200.18 183.789 200.145C182.308 200.093 180.832 199.936 179.375 199.676C178.193 199.45 177.028 199.148 175.888 198.772C175.393 198.627 174.968 198.449 174.591 198.304C174.215 198.158 173.894 198.02 173.629 197.901C173.352 197.792 173.087 197.655 172.841 197.492C172.841 197.432 174.02 197.96 175.972 198.541C177.115 198.882 178.28 199.155 179.459 199.36C182.343 199.865 185.292 199.95 188.203 199.61C189.392 199.472 190.57 199.265 191.732 198.99C193.698 198.515 194.877 198.059 194.898 198.119Z" fill="#FAFAFA"/>
<path d="M210.923 217.655C210.823 217.595 210.732 217.524 210.651 217.444C210.49 217.292 210.225 217.087 209.953 216.784C209.111 215.931 208.372 214.993 207.75 213.985C205.737 210.61 204.667 206.805 204.64 202.93C204.644 199.082 205.176 195.251 206.222 191.532C206.599 190.106 206.92 188.958 207.178 188.173C207.296 187.81 207.394 187.513 207.471 187.268C207.547 187.024 207.582 186.952 207.596 186.958C207.595 187.068 207.576 187.177 207.54 187.282C207.485 187.532 207.408 187.836 207.317 188.206C207.108 189.057 206.822 190.186 206.474 191.591C205.511 195.298 205.022 199.1 205.016 202.917C205.039 206.73 206.046 210.48 207.952 213.84C208.549 214.847 209.25 215.795 210.044 216.671C210.595 217.305 210.943 217.628 210.923 217.655Z" fill="#FAFAFA"/>
<path d="M236.298 195.241C235.184 194.405 233.94 193.737 232.61 193.261C231.154 192.785 229.662 192.416 228.147 192.159C226.264 191.859 224.401 191.455 222.568 190.951C219.257 189.932 216.236 188.212 213.733 185.922C212.978 185.231 212.278 184.488 211.641 183.698C211.411 183.421 211.257 183.19 211.146 183.038C211.034 182.886 210.985 182.8 210.999 182.794C211.269 183.051 211.52 183.324 211.752 183.612C212.421 184.366 213.141 185.078 213.907 185.744C216.421 187.952 219.412 189.616 222.673 190.621C224.487 191.122 226.328 191.532 228.188 191.849C229.717 192.126 231.219 192.521 232.679 193.03C233.666 193.383 234.592 193.872 235.427 194.482C235.655 194.644 235.869 194.823 236.068 195.017C236.243 195.162 236.312 195.235 236.298 195.241Z" fill="#FAFAFA"/>
<path d="M244.276 173.217C244.007 173.035 243.757 172.83 243.53 172.603C243.3 172.399 243.021 172.148 242.672 171.871C242.323 171.593 241.975 171.263 241.501 170.947C240.47 170.16 239.39 169.435 238.265 168.775C235.506 167.16 232.506 165.945 229.367 165.172C228.084 164.859 226.782 164.619 225.469 164.452C224.911 164.366 224.402 164.333 223.956 164.294C223.509 164.254 223.119 164.221 222.805 164.208C222.475 164.207 222.146 164.178 221.822 164.122C222.147 164.075 222.476 164.059 222.805 164.076C223.193 164.058 223.582 164.058 223.97 164.076C224.416 164.076 224.939 164.109 225.504 164.182C226.831 164.319 228.147 164.539 229.444 164.842C231.032 165.227 232.589 165.721 234.102 166.32C235.602 166.939 237.052 167.663 238.439 168.485C239.567 169.166 240.646 169.918 241.668 170.735C242.114 171.072 242.477 171.395 242.812 171.712C243.098 171.958 243.37 172.218 243.627 172.491C243.87 172.71 244.088 172.954 244.276 173.217Z" fill="#FAFAFA"/>
<path d="M183.259 142.923C182.85 143.182 182.404 143.384 181.934 143.524C180.834 143.932 179.704 144.263 178.552 144.514C177.405 144.769 176.24 144.946 175.066 145.042C174.58 145.111 174.087 145.111 173.601 145.042C173.601 144.936 175.812 144.764 178.483 144.164C181.153 143.563 183.217 142.824 183.259 142.923Z" fill="#FAFAFA"/>
<path d="M207.994 235.877C208.084 236.172 208.096 236.483 208.026 236.783C207.957 237.082 207.81 237.361 207.597 237.592C207.385 237.824 207.115 238.002 206.811 238.109C206.508 238.217 206.181 238.25 205.86 238.207C205.488 238.157 205.139 238.006 204.857 237.771C204.575 237.537 204.371 237.23 204.27 236.887L203.677 234.815H203.768C203.828 235.114 203.813 235.423 203.722 235.715C203.632 236.007 203.469 236.275 203.248 236.497C203.026 236.718 202.752 236.886 202.449 236.987C202.145 237.088 201.82 237.12 201.501 237.079C200.588 237.079 199.8 235.818 199.535 235.151C198.845 235.215 198.151 235.098 197.526 234.814C196.902 234.53 196.371 234.09 195.993 233.541L191.899 227.495L184.319 222.248L188.908 206.745L205.218 216.737C205.86 217.213 205.957 217.397 206.976 218.302L217.505 227.469C216.313 228.129 215.302 228.096 213.642 227.469C211.982 226.842 204.716 222.189 204.716 222.189L207.994 235.818" fill="#FFBE9D"/>
<path d="M194.04 223.126C194.04 223.126 194.228 223.205 194.521 223.397L195.065 223.753C195.324 223.907 195.558 224.093 195.762 224.308C196.004 224.57 196.193 224.872 196.32 225.199C196.446 225.548 196.578 225.905 196.718 226.281L197.61 228.763C198.231 230.531 198.775 232.129 199.151 233.297C199.39 233.916 199.569 234.555 199.688 235.204C199.372 234.615 199.11 234.001 198.907 233.369C198.468 232.221 197.882 230.637 197.262 228.875C196.962 227.997 196.669 227.159 196.397 226.387C196.271 226.004 196.153 225.641 196.034 225.298C195.93 224.995 195.772 224.712 195.567 224.459C195.391 224.253 195.189 224.067 194.967 223.905L194.465 223.502C194.166 223.278 194.026 223.146 194.04 223.126Z" fill="#EB996E"/>
<path d="M203.851 235.171C203.748 234.961 203.67 234.739 203.621 234.511L203.098 232.742C202.652 231.251 202.059 229.185 201.299 226.934C200.539 224.684 199.744 222.677 198.789 221.437C198.433 220.941 197.981 220.513 197.457 220.176C197.073 219.952 196.829 219.886 196.836 219.846C196.901 219.845 196.965 219.856 197.025 219.879C197.198 219.921 197.367 219.981 197.527 220.057C198.106 220.363 198.608 220.784 198.998 221.291C200.037 222.545 200.874 224.591 201.641 226.829C202.408 229.066 202.966 231.172 203.342 232.683C203.531 233.435 203.67 234.049 203.761 234.478C203.828 234.704 203.858 234.937 203.851 235.171Z" fill="#EB996E"/>
<path d="M208.063 236.108C207.937 235.89 207.841 235.657 207.777 235.415C207.603 234.887 207.387 234.247 207.129 233.488C206.599 231.858 205.895 229.601 205.135 227.106C204.374 224.611 203.74 222.42 203.217 220.704C203.037 220.068 202.646 219.504 202.101 219.094C201.88 218.959 201.647 218.844 201.404 218.75C201.473 218.735 201.544 218.735 201.613 218.75C201.809 218.792 201.995 218.866 202.164 218.968C202.773 219.364 203.223 219.943 203.44 220.612C204.012 222.242 204.688 224.499 205.462 226.994C206.236 229.489 206.892 231.766 207.359 233.409C207.568 234.175 207.75 234.828 207.889 235.389C207.974 235.622 208.032 235.863 208.063 236.108Z" fill="#EB996E"/>
<path d="M307.154 92.9874C307.154 93.4443 307.298 93.8909 307.566 94.2708C307.834 94.6507 308.215 94.9467 308.661 95.1216C309.107 95.2964 309.598 95.3422 310.071 95.253C310.545 95.1639 310.98 94.9439 311.321 94.6208C311.662 94.2978 311.895 93.8862 311.989 93.4381C312.083 92.99 312.035 92.5255 311.85 92.1034C311.665 91.6813 311.352 91.3205 310.951 91.0667C310.55 90.8129 310.078 90.6774 309.595 90.6774C308.948 90.6774 308.327 90.9208 307.869 91.354C307.412 91.7872 307.154 92.3748 307.154 92.9874Z" fill="#455A64"/>
<path d="M299.825 95.2974C301.173 95.2974 302.266 94.2632 302.266 92.9874C302.266 91.7116 301.173 90.6774 299.825 90.6774C298.477 90.6774 297.385 91.7116 297.385 92.9874C297.385 94.2632 298.477 95.2974 299.825 95.2974Z" fill="#455A64"/>
<path d="M287.643 91.8324C287.401 92.228 287.289 92.6826 287.321 93.1385C287.352 93.5945 287.526 94.0314 287.819 94.394C288.113 94.7566 288.514 95.0285 288.971 95.1755C289.428 95.3225 289.921 95.3378 290.388 95.2197C290.854 95.1015 291.273 94.855 291.591 94.5115C291.909 94.168 292.113 93.7429 292.176 93.2898C292.239 92.8368 292.159 92.3763 291.945 91.9665C291.732 91.5567 291.394 91.216 290.976 90.9876C290.699 90.8351 290.393 90.736 290.075 90.696C289.757 90.6559 289.434 90.6757 289.124 90.7542C288.814 90.8327 288.524 90.9684 288.27 91.1534C288.016 91.3385 287.803 91.5692 287.643 91.8324Z" fill="#455A64"/>
<path d="M299.672 66C299.51 65.9884 299.346 65.9884 299.184 66L297.733 66.0396C297.413 66.0396 297.036 66.0396 296.66 66.0858L295.383 66.2574L293.891 66.462L292.218 66.8514C289.351 67.525 286.62 68.6399 284.135 70.1514C280.46 72.3662 277.369 75.3468 275.096 78.8653C272.824 82.3838 271.432 86.3473 271.026 90.453C270.916 91.6844 270.89 92.9211 270.949 94.1556C270.998 94.776 270.984 95.4162 271.081 96.0432C271.179 96.6702 271.284 97.3104 271.381 97.9506C271.892 100.574 272.808 103.111 274.101 105.481C275.477 107.965 277.227 110.246 279.296 112.253C281.5 114.304 284.027 116.021 286.785 117.341C289.64 118.724 292.73 119.618 295.913 119.981C296.719 120.095 297.532 120.159 298.347 120.173C299.166 120.231 299.988 120.247 300.809 120.219C302.464 120.154 304.111 119.958 305.732 119.632C309.23 118.914 312.558 117.587 315.543 115.718L315.25 115.751L325.243 119.546L325.836 119.77L325.669 119.189L322.726 109.078L322.677 109.322C325.39 105.923 327.217 101.966 328.012 97.7724C328.394 95.8145 328.525 93.8201 328.402 91.8324C328.378 90.879 328.283 89.9284 328.116 88.9878C328.042 88.5214 327.965 88.0594 327.886 87.6018C327.802 87.1464 327.656 86.7042 327.537 86.2818C325.863 80.0638 321.909 74.6111 316.38 70.8972C314.34 69.5148 312.108 68.4044 309.749 67.5972L308.249 67.089L306.855 66.7458L305.558 66.4422C305.139 66.3696 304.735 66.33 304.358 66.2706C303.605 66.1848 302.963 66.0594 302.357 66.033L300.892 65.9868H299.993C299.891 65.9797 299.788 65.9797 299.686 65.9868C299.785 66.0167 299.889 66.0301 299.993 66.0264L300.885 66.099L302.343 66.1914C302.922 66.231 303.577 66.3696 304.33 66.4752C309.755 67.3672 314.789 69.7304 318.822 73.278C322.855 76.8255 325.713 81.4048 327.049 86.46C327.154 86.8956 327.3 87.3312 327.384 87.78C327.468 88.2288 327.524 88.6776 327.6 89.1396C327.76 90.0629 327.848 90.996 327.865 91.9314C327.975 93.8735 327.839 95.8211 327.461 97.7328C326.651 101.834 324.839 105.699 322.168 109.019L322.077 109.131L322.119 109.27C323.049 112.534 324.021 115.907 325.034 119.387L325.459 119.031L315.467 115.223L315.313 115.163L315.167 115.249C310.881 117.937 305.897 119.457 300.76 119.645C299.958 119.671 299.155 119.658 298.354 119.605C297.558 119.591 296.763 119.528 295.976 119.414C292.864 119.057 289.842 118.184 287.05 116.833C284.351 115.541 281.877 113.865 279.714 111.863C277.686 109.908 275.967 107.685 274.61 105.263C273.351 102.937 272.458 100.449 271.96 97.878C271.855 97.218 271.751 96.6306 271.653 96.0102C271.556 95.3898 271.569 94.7694 271.521 94.1556C271.455 92.9458 271.474 91.7331 271.576 90.5256C271.956 86.4843 273.304 82.578 275.516 79.1028C277.728 75.6276 280.747 72.6747 284.345 70.4682C286.787 68.9394 289.473 67.7939 292.301 67.0758L293.947 66.66L295.425 66.429L296.694 66.231C297.085 66.1914 297.441 66.1782 297.754 66.1584L299.198 66.0594C299.358 66.0554 299.517 66.0355 299.672 66Z" fill="#455A64"/>
</svg>
